<?xml version="1.0" encoding="utf-8" standalone="no"?>
<!DOCTYPE svg PUBLIC "-//W3C//DTD SVG 1.1//EN"
  "http://www.w3.org/Graphics/SVG/1.1/DTD/svg11.dtd">
<!-- Created with matplotlib (https://matplotlib.org/) -->
<svg height="481.746644pt" version="1.1" viewBox="0 0 739.78437 481.746644" width="739.78437pt" xmlns="http://www.w3.org/2000/svg" xmlns:xlink="http://www.w3.org/1999/xlink">
 <defs>
  <style type="text/css">
*{stroke-linecap:butt;stroke-linejoin:round;}
  </style>
 </defs>
 <g id="figure_1">
  <g id="patch_1">
   <path d="M 0 481.746644 
L 739.78437 481.746644 
L 739.78437 0 
L 0 0 
z
" style="fill:#ffffff;"/>
  </g>
  <g id="axes_1">
   <g id="patch_2">
    <path d="M 70.18437 434.88 
L 739.78437 434.88 
L 739.78437 0 
L 70.18437 0 
z
" style="fill:#ffffff;"/>
   </g>
   <g id="matplotlib.axis_1">
    <g id="xtick_1">
     <g id="line2d_1">
      <defs>
       <path d="M 0 0 
L 0 3.5 
" id="m602e3c8b99" style="stroke:#000000;stroke-width:0.8;"/>
      </defs>
      <g>
       <use style="stroke:#000000;stroke-width:0.8;" x="146.346447" xlink:href="#m602e3c8b99" y="434.88"/>
      </g>
     </g>
     <g id="text_1">
      <!-- $-2.0$ -->
      <defs>
       <path d="M 65.90625 23 
C 67.59375 23 69.40625 23 69.40625 25 
C 69.40625 27 67.59375 27 65.90625 27 
L 11.796875 27 
C 10.09375 27 8.296875 27 8.296875 25 
C 8.296875 23 10.09375 23 11.796875 23 
z
" id="CMSY10-0"/>
       <path d="M 41.703125 15.46875 
L 39.90625 15.46875 
C 38.90625 8.390625 38.09375 7.1875 37.703125 6.59375 
C 37.203125 5.796875 30 5.796875 28.59375 5.796875 
L 9.40625 5.796875 
C 13 9.6875 20 16.765625 28.5 24.9375 
C 34.59375 30.71875 41.703125 37.5 41.703125 47.390625 
C 41.703125 59.1875 32.296875 66 21.796875 66 
C 10.796875 66 4.09375 56.296875 4.09375 47.296875 
C 4.09375 43.390625 7 42.890625 8.203125 42.890625 
C 9.203125 42.890625 12.203125 43.484375 12.203125 46.984375 
C 12.203125 50.09375 9.59375 51 8.203125 51 
C 7.59375 51 7 50.890625 6.59375 50.6875 
C 8.5 59.1875 14.296875 63.390625 20.40625 63.390625 
C 29.09375 63.390625 34.796875 56.5 34.796875 47.390625 
C 34.796875 38.703125 29.703125 31.21875 24 24.734375 
L 4.09375 2.296875 
L 4.09375 0 
L 39.296875 0 
z
" id="CMR17-50"/>
       <path d="M 18.40625 4.796875 
C 18.40625 7.6875 16 9.6875 13.59375 9.6875 
C 10.703125 9.6875 8.703125 7.296875 8.703125 4.890625 
C 8.703125 2 11.09375 0 13.5 0 
C 16.40625 0 18.40625 2.390625 18.40625 4.796875 
z
" id="CMMI12-58"/>
       <path d="M 42 31.84375 
C 42 37.96875 41.90625 48.421875 37.703125 56.453125 
C 34 63.484375 28.09375 66 22.90625 66 
C 18.09375 66 12 63.78125 8.203125 56.5625 
C 4.203125 49.015625 3.796875 39.671875 3.796875 31.84375 
C 3.796875 26.109375 3.90625 17.375 7 9.734375 
C 11.296875 -0.609375 19 -2 22.90625 -2 
C 27.5 -2 34.5 -0.109375 38.59375 9.4375 
C 41.59375 16.375 42 24.5 42 31.84375 
z
M 22.90625 -0.40625 
C 16.5 -0.40625 12.703125 5.125 11.296875 12.75 
C 10.203125 18.6875 10.203125 27.328125 10.203125 32.953125 
C 10.203125 40.6875 10.203125 47.109375 11.5 53.234375 
C 13.40625 61.78125 19 64.390625 22.90625 64.390625 
C 27 64.390625 32.296875 61.671875 34.203125 53.4375 
C 35.5 47.71875 35.59375 40.984375 35.59375 32.953125 
C 35.59375 26.421875 35.59375 18.375 34.40625 12.453125 
C 32.296875 1.5 26.40625 -0.40625 22.90625 -0.40625 
z
" id="CMR17-48"/>
      </defs>
      <g transform="translate(128.709545 454.3333)scale(0.18 -0.18)">
       <use transform="scale(0.996264)" xlink:href="#CMSY10-0"/>
       <use transform="translate(77.487468 0)scale(0.996264)" xlink:href="#CMR17-50"/>
       <use transform="translate(123.177945 0)scale(0.996264)" xlink:href="#CMMI12-58"/>
       <use transform="translate(150.275122 0)scale(0.996264)" xlink:href="#CMR17-48"/>
      </g>
     </g>
    </g>
    <g id="xtick_2">
     <g id="line2d_2">
      <g>
       <use style="stroke:#000000;stroke-width:0.8;" x="234.167229" xlink:href="#m602e3c8b99" y="434.88"/>
      </g>
     </g>
     <g id="text_2">
      <!-- $-1.8$ -->
      <defs>
       <path d="M 26.59375 63.796875 
C 26.59375 65.890625 26.5 66 25.09375 66 
C 21.203125 61.359375 15.296875 59.890625 9.703125 59.6875 
C 9.40625 59.6875 8.90625 59.6875 8.796875 59.5 
C 8.703125 59.296875 8.703125 59.09375 8.703125 57 
C 11.796875 57 17 57.59375 21 59.984375 
L 21 7.296875 
C 21 3.796875 20.796875 2.59375 12.203125 2.59375 
L 9.203125 2.59375 
L 9.203125 0 
C 14 0.09375 19 0.1875 23.796875 0.1875 
C 28.59375 0.1875 33.59375 0.09375 38.40625 0 
L 38.40625 2.59375 
L 35.40625 2.59375 
C 26.796875 2.59375 26.59375 3.6875 26.59375 7.296875 
z
" id="CMR17-49"/>
       <path d="M 27.203125 35.765625 
C 33.5 38.96875 39.90625 43.796875 39.90625 51.53125 
C 39.90625 60.6875 31.09375 66 23 66 
C 13.90625 66 5.90625 59.375 5.90625 50.234375 
C 5.90625 47.71875 6.5 43.390625 10.40625 39.578125 
C 11.40625 38.578125 15.59375 35.5625 18.296875 33.65625 
C 13.796875 31.34375 3.296875 25.8125 3.296875 14.765625 
C 3.296875 4.40625 13.09375 -2 22.796875 -2 
C 33.5 -2 42.5 5.71875 42.5 15.96875 
C 42.5 25.109375 36.40625 29.328125 32.40625 32.046875 
z
M 14.09375 44.609375 
C 13.296875 45.109375 9.296875 48.21875 9.296875 52.9375 
C 9.296875 59.078125 15.59375 63.6875 22.796875 63.6875 
C 30.703125 63.6875 36.5 58.0625 36.5 51.53125 
C 36.5 42.1875 26.09375 36.859375 25.59375 36.859375 
C 25.5 36.859375 25.40625 36.859375 24.59375 37.46875 
z
M 32.5 24 
C 34 22.90625 38.796875 19.578125 38.796875 13.453125 
C 38.796875 6.015625 31.40625 0.390625 23 0.390625 
C 13.90625 0.390625 7 6.921875 7 14.859375 
C 7 22.796875 13.09375 29.4375 20 32.546875 
z
" id="CMR17-56"/>
      </defs>
      <g transform="translate(216.530327 454.3333)scale(0.18 -0.18)">
       <use transform="scale(0.996264)" xlink:href="#CMSY10-0"/>
       <use transform="translate(77.487468 0)scale(0.996264)" xlink:href="#CMR17-49"/>
       <use transform="translate(123.177945 0)scale(0.996264)" xlink:href="#CMMI12-58"/>
       <use transform="translate(150.275122 0)scale(0.996264)" xlink:href="#CMR17-56"/>
      </g>
     </g>
    </g>
    <g id="xtick_3">
     <g id="line2d_3">
      <g>
       <use style="stroke:#000000;stroke-width:0.8;" x="321.988011" xlink:href="#m602e3c8b99" y="434.88"/>
      </g>
     </g>
     <g id="text_3">
      <!-- $-1.6$ -->
      <defs>
       <path d="M 10.59375 34.34375 
C 10.59375 58 21.796875 63.6875 28.296875 63.6875 
C 30.40625 63.6875 35.5 63.265625 37.5 59.09375 
C 35.90625 59.09375 32.90625 59.09375 32.90625 55.59375 
C 32.90625 52.890625 35.09375 52 36.5 52 
C 37.40625 52 40.09375 52.390625 40.09375 55.796875 
C 40.09375 62.296875 35.09375 66 28.203125 66 
C 16.296875 66 3.796875 53.296875 3.796875 31.421875 
C 3.796875 4.015625 15.09375 -2 23.09375 -2 
C 32.796875 -2 42 6.734375 42 20.234375 
C 42 32.828125 33.90625 42 23.703125 42 
C 17.59375 42 13.09375 37.96875 10.59375 30.921875 
z
M 23.09375 0.390625 
C 10.796875 0.390625 10.796875 18.9375 10.796875 22.65625 
C 10.796875 29.90625 14.203125 40.390625 23.5 40.390625 
C 25.203125 40.390625 30.09375 40.390625 33.40625 33.4375 
C 35.203125 29.515625 35.203125 25.375 35.203125 20.34375 
C 35.203125 14.90625 35.203125 10.875 33.09375 6.84375 
C 30.90625 2.703125 27.703125 0.390625 23.09375 0.390625 
z
" id="CMR17-54"/>
      </defs>
      <g transform="translate(304.351108 454.3333)scale(0.18 -0.18)">
       <use transform="scale(0.996264)" xlink:href="#CMSY10-0"/>
       <use transform="translate(77.487468 0)scale(0.996264)" xlink:href="#CMR17-49"/>
       <use transform="translate(123.177945 0)scale(0.996264)" xlink:href="#CMMI12-58"/>
       <use transform="translate(150.275122 0)scale(0.996264)" xlink:href="#CMR17-54"/>
      </g>
     </g>
    </g>
    <g id="xtick_4">
     <g id="line2d_4">
      <g>
       <use style="stroke:#000000;stroke-width:0.8;" x="409.808793" xlink:href="#m602e3c8b99" y="434.88"/>
      </g>
     </g>
     <g id="text_4">
      <!-- $-1.4$ -->
      <defs>
       <path d="M 33.59375 64.796875 
C 33.59375 66.890625 33.5 67 31.703125 67 
L 2 19.59375 
L 2 17 
L 27.796875 17 
L 27.796875 7.1875 
C 27.796875 3.59375 27.59375 2.59375 20.59375 2.59375 
L 18.703125 2.59375 
L 18.703125 0 
C 21.90625 0.1875 27.296875 0.1875 30.703125 0.1875 
C 34.09375 0.1875 39.5 0.1875 42.703125 0 
L 42.703125 2.59375 
L 40.796875 2.59375 
C 33.796875 2.59375 33.59375 3.59375 33.59375 7.1875 
L 33.59375 17 
L 43.796875 17 
L 43.796875 19.59375 
L 33.59375 19.59375 
z
M 28.09375 58.171875 
L 28.09375 19.59375 
L 4 19.59375 
z
" id="CMR17-52"/>
      </defs>
      <g transform="translate(392.17189 454.3333)scale(0.18 -0.18)">
       <use transform="scale(0.996264)" xlink:href="#CMSY10-0"/>
       <use transform="translate(77.487468 0)scale(0.996264)" xlink:href="#CMR17-49"/>
       <use transform="translate(123.177945 0)scale(0.996264)" xlink:href="#CMMI12-58"/>
       <use transform="translate(150.275122 0)scale(0.996264)" xlink:href="#CMR17-52"/>
      </g>
     </g>
    </g>
    <g id="xtick_5">
     <g id="line2d_5">
      <g>
       <use style="stroke:#000000;stroke-width:0.8;" x="497.629575" xlink:href="#m602e3c8b99" y="434.88"/>
      </g>
     </g>
     <g id="text_5">
      <!-- $-1.2$ -->
      <g transform="translate(479.992672 454.3333)scale(0.18 -0.18)">
       <use transform="scale(0.996264)" xlink:href="#CMSY10-0"/>
       <use transform="translate(77.487468 0)scale(0.996264)" xlink:href="#CMR17-49"/>
       <use transform="translate(123.177945 0)scale(0.996264)" xlink:href="#CMMI12-58"/>
       <use transform="translate(150.275122 0)scale(0.996264)" xlink:href="#CMR17-50"/>
      </g>
     </g>
    </g>
    <g id="xtick_6">
     <g id="line2d_6">
      <g>
       <use style="stroke:#000000;stroke-width:0.8;" x="585.450356" xlink:href="#m602e3c8b99" y="434.88"/>
      </g>
     </g>
     <g id="text_6">
      <!-- $-1.0$ -->
      <g transform="translate(567.813454 454.3333)scale(0.18 -0.18)">
       <use transform="scale(0.996264)" xlink:href="#CMSY10-0"/>
       <use transform="translate(77.487468 0)scale(0.996264)" xlink:href="#CMR17-49"/>
       <use transform="translate(123.177945 0)scale(0.996264)" xlink:href="#CMMI12-58"/>
       <use transform="translate(150.275122 0)scale(0.996264)" xlink:href="#CMR17-48"/>
      </g>
     </g>
    </g>
    <g id="xtick_7">
     <g id="line2d_7">
      <g>
       <use style="stroke:#000000;stroke-width:0.8;" x="673.271138" xlink:href="#m602e3c8b99" y="434.88"/>
      </g>
     </g>
     <g id="text_7">
      <!-- $-0.8$ -->
      <g transform="translate(655.634235 454.3333)scale(0.18 -0.18)">
       <use transform="scale(0.996264)" xlink:href="#CMSY10-0"/>
       <use transform="translate(77.487468 0)scale(0.996264)" xlink:href="#CMR17-48"/>
       <use transform="translate(123.177945 0)scale(0.996264)" xlink:href="#CMMI12-58"/>
       <use transform="translate(150.275122 0)scale(0.996264)" xlink:href="#CMR17-56"/>
      </g>
     </g>
    </g>
    <g id="text_8">
     <!-- $\ln\ \left(T - T_0 / T_m - T_0\right)$ -->
     <defs>
      <path d="M 15.296875 69 
L 3.40625 67.890625 
L 3.40625 65.296875 
C 9.296875 65.296875 10.203125 64.703125 10.203125 59.921875 
L 10.203125 6.859375 
C 10.203125 3.09375 9.796875 2.59375 3.40625 2.59375 
L 3.40625 0 
C 5.796875 0.1875 10.203125 0.1875 12.703125 0.1875 
C 15.296875 0.1875 19.703125 0.1875 22.09375 0 
L 22.09375 2.59375 
C 15.703125 2.59375 15.296875 2.984375 15.296875 6.859375 
z
" id="CMR17-108"/>
      <path d="M 41.5 30.53125 
C 41.5 35.65625 40.5 44 28.703125 44 
C 20.796875 44 16.703125 37.875 15.203125 33.84375 
L 15.09375 33.84375 
L 15.09375 44 
L 3.296875 42.890625 
L 3.296875 40.28125 
C 9.203125 40.28125 10.09375 39.6875 10.09375 34.859375 
L 10.09375 6.921875 
C 10.09375 3.09375 9.703125 2.59375 3.296875 2.59375 
L 3.296875 0 
C 5.703125 0.1875 10.09375 0.1875 12.703125 0.1875 
C 15.296875 0.1875 19.796875 0.1875 22.203125 0 
L 22.203125 2.59375 
C 15.796875 2.59375 15.40625 3 15.40625 6.921875 
L 15.40625 26.21875 
C 15.40625 35.453125 21 42.390625 28 42.390625 
C 35.40625 42.390625 36.203125 35.765625 36.203125 30.9375 
L 36.203125 6.921875 
C 36.203125 3.09375 35.796875 2.59375 29.40625 2.59375 
L 29.40625 0 
C 31.796875 0.1875 36.203125 0.1875 38.796875 0.1875 
C 41.40625 0.1875 45.90625 0.1875 48.296875 0 
L 48.296875 2.59375 
C 41.90625 2.59375 41.5 3 41.5 6.921875 
z
" id="CMR17-110"/>
      <path d="M 30.59375 -24.40625 
C 30.59375 -24.3125 30.59375 -24.109375 30.296875 -23.8125 
C 25.703125 -19.109375 13.40625 -6.296875 13.40625 24.9375 
C 13.40625 56.171875 25.5 68.875 30.40625 73.890625 
C 30.40625 73.984375 30.59375 74.1875 30.59375 74.484375 
C 30.59375 74.796875 30.296875 75 29.90625 75 
C 28.796875 75 20.296875 67.578125 15.40625 56.5625 
C 10.40625 45.453125 9 34.65625 9 25.046875 
C 9 17.828125 9.703125 5.625 15.703125 -7.296875 
C 20.5 -17.703125 28.703125 -25 29.90625 -25 
C 30.40625 -25 30.59375 -24.8125 30.59375 -24.40625 
z
" id="CMR17-40"/>
      <path d="M 41.703125 60.71875 
C 42.296875 63.09375 42.5 64 44 64.390625 
C 44.796875 64.59375 48.09375 64.59375 50.203125 64.59375 
C 60.203125 64.59375 64.90625 64.203125 64.90625 56.4375 
C 64.90625 54.9375 64.5 51.15625 63.90625 47.46875 
L 63.796875 46.28125 
C 63.796875 45.890625 64.203125 45.28125 64.796875 45.28125 
C 65.796875 45.28125 65.796875 45.78125 66.09375 47.375 
L 69 64.984375 
C 69.203125 65.890625 69.203125 66.09375 69.203125 66.390625 
C 69.203125 67.484375 68.59375 67.484375 66.59375 67.484375 
L 11.90625 67.484375 
C 9.59375 67.484375 9.5 67.390625 8.90625 65.59375 
L 2.796875 47.671875 
C 2.703125 47.46875 2.40625 46.375 2.40625 46.28125 
C 2.40625 45.78125 2.796875 45.28125 3.40625 45.28125 
C 4.203125 45.28125 4.40625 45.6875 4.796875 46.984375 
C 9 59.015625 11.09375 64.59375 24.40625 64.59375 
L 31.09375 64.59375 
C 33.5 64.59375 34.5 64.59375 34.5 63.5 
C 34.5 63.203125 34.5 63 34 61.203125 
L 20.59375 7.765625 
C 19.59375 3.890625 19.40625 2.890625 8.796875 2.890625 
C 6.296875 2.890625 5.59375 2.890625 5.59375 1 
C 5.59375 0 6.703125 0 7.203125 0 
C 9.703125 0 12.296875 0.1875 14.796875 0.1875 
L 30.40625 0.1875 
C 32.90625 0.1875 35.59375 0 38.09375 0 
C 39.203125 0 40.203125 0 40.203125 1.890625 
C 40.203125 2.890625 39.5 2.890625 36.90625 2.890625 
C 27.90625 2.890625 27.90625 3.78125 27.90625 5.28125 
C 27.90625 5.375 27.90625 6.078125 28.296875 7.671875 
z
" id="CMMI12-84"/>
      <path d="M 42.90625 71.296875 
C 42.90625 71.390625 43.5 72.890625 43.5 73.09375 
C 43.5 74.296875 42.5 75 41.703125 75 
C 41.203125 75 40.296875 75 39.5 72.796875 
L 6 -21.3125 
C 6 -21.40625 5.40625 -22.90625 5.40625 -23.109375 
C 5.40625 -24.3125 6.40625 -25 7.203125 -25 
C 7.796875 -25 8.703125 -24.90625 9.40625 -22.8125 
z
" id="CMMI12-61"/>
      <path d="M 20.59375 29.21875 
C 20.796875 29.828125 23.296875 34.8125 27 38 
C 29.59375 40.390625 33 41.984375 36.90625 41.984375 
C 40.90625 41.984375 42.296875 39 42.296875 35.015625 
C 42.296875 34.40625 42.296875 32.421875 41.09375 27.734375 
L 38.59375 17.453125 
C 37.796875 14.453125 35.90625 7.078125 35.703125 5.984375 
C 35.296875 4.484375 34.703125 1.890625 34.703125 1.484375 
C 34.703125 0.09375 35.796875 -1 37.296875 -1 
C 40.296875 -1 40.796875 1.296875 41.703125 4.890625 
L 47.703125 28.71875 
C 47.90625 29.53125 53.09375 41.984375 64.09375 41.984375 
C 68.09375 41.984375 69.5 39 69.5 35.015625 
C 69.5 29.421875 65.59375 18.546875 63.40625 12.5625 
C 62.5 10.171875 62 8.875 62 7.078125 
C 62 2.59375 65.09375 -1 69.90625 -1 
C 79.203125 -1 82.703125 13.65625 82.703125 14.265625 
C 82.703125 14.765625 82.296875 15.15625 81.703125 15.15625 
C 80.796875 15.15625 80.703125 14.859375 80.203125 13.15625 
C 77.90625 5.1875 74.203125 1 70.203125 1 
C 69.203125 1 67.59375 1.09375 67.59375 4.28125 
C 67.59375 6.875 68.796875 10.078125 69.203125 11.171875 
C 71 15.953125 75.5 27.734375 75.5 33.515625 
C 75.5 39.5 72 44 64.40625 44 
C 57.703125 44 52.296875 40.203125 48.296875 34.3125 
C 48 39.703125 44.703125 44 37.203125 44 
C 28.296875 44 23.59375 37.703125 21.796875 35.203125 
C 21.5 40.890625 17.40625 44 13 44 
C 10.09375 44 7.796875 42.59375 5.90625 38.796875 
C 4.09375 35.203125 2.703125 29.125 2.703125 28.71875 
C 2.703125 28.328125 3.09375 27.828125 3.796875 27.828125 
C 4.59375 27.828125 4.703125 27.921875 5.296875 30.21875 
C 6.796875 36.109375 8.703125 41.984375 12.703125 41.984375 
C 15 41.984375 15.796875 40.390625 15.796875 37.40625 
C 15.796875 35.203125 14.796875 31.3125 14.09375 28.234375 
L 11.296875 17.453125 
C 10.90625 15.5625 9.796875 11.0625 9.296875 9.265625 
C 8.59375 6.671875 7.5 1.984375 7.5 1.484375 
C 7.5 0.09375 8.59375 -1 10.09375 -1 
C 11.296875 -1 12.703125 -0.40625 13.5 1.09375 
C 13.703125 1.59375 14.59375 5.078125 15.09375 7.078125 
L 17.296875 16.0625 
z
" id="CMMI12-109"/>
      <path d="M 26.296875 24.9375 
C 26.296875 32.140625 25.59375 44.359375 19.59375 57.265625 
C 14.796875 67.6875 6.59375 75 5.40625 75 
C 5.09375 75 4.703125 74.890625 4.703125 74.390625 
C 4.703125 74.1875 4.796875 74.09375 4.90625 73.890625 
C 9.703125 68.875 21.90625 56.171875 21.90625 25.046875 
C 21.90625 -6.1875 9.796875 -18.90625 4.90625 -23.90625 
C 4.796875 -24.109375 4.703125 -24.203125 4.703125 -24.40625 
C 4.703125 -24.90625 5.09375 -25 5.40625 -25 
C 6.5 -25 15 -17.609375 19.90625 -6.59375 
C 24.90625 4.515625 26.296875 15.328125 26.296875 24.9375 
z
" id="CMR17-41"/>
     </defs>
     <g transform="translate(318.564274 477.871011)scale(0.2 -0.2)">
      <use transform="translate(0 14.943915)scale(0.996264)" xlink:href="#CMR17-108"/>
      <use transform="translate(24.871058 14.943915)scale(0.996264)" xlink:href="#CMR17-110"/>
      <use transform="translate(123.599946 14.947092)scale(0.996264)" xlink:href="#CMR17-40"/>
      <use transform="translate(158.880714 14.943915)scale(0.996264)" xlink:href="#CMMI12-84"/>
      <use transform="translate(251.743553 14.943915)scale(0.996264)" xlink:href="#CMSY10-0"/>
      <use transform="translate(351.370228 14.943915)scale(0.996264)" xlink:href="#CMMI12-84"/>
      <use transform="translate(408.545272 0)scale(0.697382)" xlink:href="#CMR17-48"/>
      <use transform="translate(441.026585 14.943915)scale(0.996264)" xlink:href="#CMMI12-61"/>
      <use transform="translate(489.801504 14.943915)scale(0.996264)" xlink:href="#CMMI12-84"/>
      <use transform="translate(546.976548 0)scale(0.697382)" xlink:href="#CMMI12-109"/>
      <use transform="translate(629.342678 14.943915)scale(0.996264)" xlink:href="#CMSY10-0"/>
      <use transform="translate(728.969353 14.943915)scale(0.996264)" xlink:href="#CMMI12-84"/>
      <use transform="translate(786.144396 0)scale(0.697382)" xlink:href="#CMR17-48"/>
      <use transform="translate(818.62571 14.947092)scale(0.996264)" xlink:href="#CMR17-41"/>
     </g>
    </g>
   </g>
   <g id="matplotlib.axis_2">
    <g id="ytick_1">
     <g id="line2d_8">
      <defs>
       <path d="M 0 0 
L -3.5 0 
" id="m2c07a0488d" style="stroke:#000000;stroke-width:0.8;"/>
      </defs>
      <g>
       <use style="stroke:#000000;stroke-width:0.8;" x="70.18437" xlink:href="#m2c07a0488d" y="426.345572"/>
      </g>
     </g>
     <g id="text_9">
      <!-- $-2.2$ -->
      <g transform="translate(27.910564 432.572222)scale(0.18 -0.18)">
       <use transform="scale(0.996264)" xlink:href="#CMSY10-0"/>
       <use transform="translate(77.487468 0)scale(0.996264)" xlink:href="#CMR17-50"/>
       <use transform="translate(123.177945 0)scale(0.996264)" xlink:href="#CMMI12-58"/>
       <use transform="translate(150.275122 0)scale(0.996264)" xlink:href="#CMR17-50"/>
      </g>
     </g>
    </g>
    <g id="ytick_2">
     <g id="line2d_9">
      <g>
       <use style="stroke:#000000;stroke-width:0.8;" x="70.18437" xlink:href="#m2c07a0488d" y="377.002829"/>
      </g>
     </g>
     <g id="text_10">
      <!-- $-2.0$ -->
      <g transform="translate(27.910564 383.229479)scale(0.18 -0.18)">
       <use transform="scale(0.996264)" xlink:href="#CMSY10-0"/>
       <use transform="translate(77.487468 0)scale(0.996264)" xlink:href="#CMR17-50"/>
       <use transform="translate(123.177945 0)scale(0.996264)" xlink:href="#CMMI12-58"/>
       <use transform="translate(150.275122 0)scale(0.996264)" xlink:href="#CMR17-48"/>
      </g>
     </g>
    </g>
    <g id="ytick_3">
     <g id="line2d_10">
      <g>
       <use style="stroke:#000000;stroke-width:0.8;" x="70.18437" xlink:href="#m2c07a0488d" y="327.660086"/>
      </g>
     </g>
     <g id="text_11">
      <!-- $-1.8$ -->
      <g transform="translate(27.910564 333.886736)scale(0.18 -0.18)">
       <use transform="scale(0.996264)" xlink:href="#CMSY10-0"/>
       <use transform="translate(77.487468 0)scale(0.996264)" xlink:href="#CMR17-49"/>
       <use transform="translate(123.177945 0)scale(0.996264)" xlink:href="#CMMI12-58"/>
       <use transform="translate(150.275122 0)scale(0.996264)" xlink:href="#CMR17-56"/>
      </g>
     </g>
    </g>
    <g id="ytick_4">
     <g id="line2d_11">
      <g>
       <use style="stroke:#000000;stroke-width:0.8;" x="70.18437" xlink:href="#m2c07a0488d" y="278.317343"/>
      </g>
     </g>
     <g id="text_12">
      <!-- $-1.6$ -->
      <g transform="translate(27.910564 284.543993)scale(0.18 -0.18)">
       <use transform="scale(0.996264)" xlink:href="#CMSY10-0"/>
       <use transform="translate(77.487468 0)scale(0.996264)" xlink:href="#CMR17-49"/>
       <use transform="translate(123.177945 0)scale(0.996264)" xlink:href="#CMMI12-58"/>
       <use transform="translate(150.275122 0)scale(0.996264)" xlink:href="#CMR17-54"/>
      </g>
     </g>
    </g>
    <g id="ytick_5">
     <g id="line2d_12">
      <g>
       <use style="stroke:#000000;stroke-width:0.8;" x="70.18437" xlink:href="#m2c07a0488d" y="228.9746"/>
      </g>
     </g>
     <g id="text_13">
      <!-- $-1.4$ -->
      <g transform="translate(27.910564 235.20125)scale(0.18 -0.18)">
       <use transform="scale(0.996264)" xlink:href="#CMSY10-0"/>
       <use transform="translate(77.487468 0)scale(0.996264)" xlink:href="#CMR17-49"/>
       <use transform="translate(123.177945 0)scale(0.996264)" xlink:href="#CMMI12-58"/>
       <use transform="translate(150.275122 0)scale(0.996264)" xlink:href="#CMR17-52"/>
      </g>
     </g>
    </g>
    <g id="ytick_6">
     <g id="line2d_13">
      <g>
       <use style="stroke:#000000;stroke-width:0.8;" x="70.18437" xlink:href="#m2c07a0488d" y="179.631857"/>
      </g>
     </g>
     <g id="text_14">
      <!-- $-1.2$ -->
      <g transform="translate(27.910564 185.858507)scale(0.18 -0.18)">
       <use transform="scale(0.996264)" xlink:href="#CMSY10-0"/>
       <use transform="translate(77.487468 0)scale(0.996264)" xlink:href="#CMR17-49"/>
       <use transform="translate(123.177945 0)scale(0.996264)" xlink:href="#CMMI12-58"/>
       <use transform="translate(150.275122 0)scale(0.996264)" xlink:href="#CMR17-50"/>
      </g>
     </g>
    </g>
    <g id="ytick_7">
     <g id="line2d_14">
      <g>
       <use style="stroke:#000000;stroke-width:0.8;" x="70.18437" xlink:href="#m2c07a0488d" y="130.289114"/>
      </g>
     </g>
     <g id="text_15">
      <!-- $-1.0$ -->
      <g transform="translate(27.910564 136.515764)scale(0.18 -0.18)">
       <use transform="scale(0.996264)" xlink:href="#CMSY10-0"/>
       <use transform="translate(77.487468 0)scale(0.996264)" xlink:href="#CMR17-49"/>
       <use transform="translate(123.177945 0)scale(0.996264)" xlink:href="#CMMI12-58"/>
       <use transform="translate(150.275122 0)scale(0.996264)" xlink:href="#CMR17-48"/>
      </g>
     </g>
    </g>
    <g id="ytick_8">
     <g id="line2d_15">
      <g>
       <use style="stroke:#000000;stroke-width:0.8;" x="70.18437" xlink:href="#m2c07a0488d" y="80.946371"/>
      </g>
     </g>
     <g id="text_16">
      <!-- $-0.8$ -->
      <g transform="translate(27.910564 87.173021)scale(0.18 -0.18)">
       <use transform="scale(0.996264)" xlink:href="#CMSY10-0"/>
       <use transform="translate(77.487468 0)scale(0.996264)" xlink:href="#CMR17-48"/>
       <use transform="translate(123.177945 0)scale(0.996264)" xlink:href="#CMMI12-58"/>
       <use transform="translate(150.275122 0)scale(0.996264)" xlink:href="#CMR17-56"/>
      </g>
     </g>
    </g>
    <g id="ytick_9">
     <g id="line2d_16">
      <g>
       <use style="stroke:#000000;stroke-width:0.8;" x="70.18437" xlink:href="#m2c07a0488d" y="31.603628"/>
      </g>
     </g>
     <g id="text_17">
      <!-- $-0.6$ -->
      <g transform="translate(27.910564 37.830278)scale(0.18 -0.18)">
       <use transform="scale(0.996264)" xlink:href="#CMSY10-0"/>
       <use transform="translate(77.487468 0)scale(0.996264)" xlink:href="#CMR17-48"/>
       <use transform="translate(123.177945 0)scale(0.996264)" xlink:href="#CMMI12-58"/>
       <use transform="translate(150.275122 0)scale(0.996264)" xlink:href="#CMR17-54"/>
      </g>
     </g>
    </g>
    <g id="text_18">
     <!-- $\ln\left(1 - \sigma^y/\left(A + B\varepsilon^{p^n}\right)\right)$ -->
     <defs>
      <path d="M 41.296875 -115 
C 41.296875 -114.609375 41.09375 -114.40625 40.90625 -114.109375 
C 36.296875 -109.203125 29.5 -101.09375 25.296875 -84.78125 
C 23 -75.671875 22.09375 -65.375 22.09375 -56.0625 
C 22.09375 -29.734375 28.40625 -11.328125 40.40625 1.6875 
C 41.296875 2.59375 41.296875 2.796875 41.296875 3 
C 41.296875 4 40.5 4 40.09375 4 
C 38.59375 4 33.203125 -2.015625 31.90625 -3.515625 
C 21.703125 -15.625 15.203125 -33.640625 15.203125 -55.953125 
C 15.203125 -70.171875 17.703125 -90.28125 30.796875 -107.203125 
C 31.796875 -108.40625 38.296875 -116 40.09375 -116 
C 40.5 -116 41.296875 -116 41.296875 -115 
z
" id="CMEX10-0"/>
      <path d="M 50.796875 37.59375 
C 52.09375 37.59375 55.40625 37.59375 55.40625 40.796875 
C 55.40625 43 53.5 43 51.703125 43 
L 29.59375 43 
C 14.59375 43 3.796875 26.328125 3.796875 14.5625 
C 3.796875 6.078125 9.296875 -1 18.296875 -1 
C 30.09375 -1 43 11.65625 43 26.625 
C 43 30.515625 42.09375 34.296875 39.703125 37.59375 
z
M 18.40625 1 
C 13.296875 1 9.59375 4.875 9.59375 11.765625 
C 9.59375 17.75 13.203125 37.59375 27.90625 37.59375 
C 32.203125 37.59375 37 35.5 37 27.8125 
C 37 24.328125 35.40625 15.953125 31.90625 10.171875 
C 28.296875 4.28125 22.90625 1 18.40625 1 
z
" id="CMMI12-27"/>
      <path d="M 26.296875 -10.515625 
C 23.59375 -14.390625 19.703125 -18 14.796875 -18 
C 13.59375 -18 8.796875 -17.796875 7.296875 -12.90625 
C 7.59375 -13.015625 8.09375 -13.015625 8.296875 -13.015625 
C 11.296875 -13.015625 13.296875 -10.40625 13.296875 -8.109375 
C 13.296875 -5.8125 11.40625 -5 9.90625 -5 
C 8.296875 -5 4.796875 -6.203125 4.796875 -11.109375 
C 4.796875 -16.40625 9.09375 -20 14.796875 -20 
C 24.796875 -20 34.90625 -10.515625 37.703125 -0.109375 
L 47.5 38.796875 
C 47.59375 39.296875 47.796875 39.890625 47.796875 40.484375 
C 47.796875 41.984375 46.59375 43 45.09375 43 
C 44.203125 43 42.09375 42.59375 41.296875 39.59375 
L 33.90625 10.265625 
C 33.40625 8.46875 33.40625 8.28125 32.59375 7.171875 
C 30.59375 4.390625 27.296875 1 22.5 1 
C 16.90625 1 16.40625 6.484375 16.40625 9.171875 
C 16.40625 14.859375 19.09375 22.546875 21.796875 29.71875 
C 22.90625 32.609375 23.5 34.015625 23.5 36.015625 
C 23.5 40.203125 20.5 44 15.59375 44 
C 6.40625 44 2.703125 29.53125 2.703125 28.71875 
C 2.703125 28.328125 3.09375 27.828125 3.796875 27.828125 
C 4.703125 27.828125 4.796875 28.234375 5.203125 29.625 
C 7.59375 38 11.40625 41.984375 15.296875 41.984375 
C 16.203125 41.984375 17.90625 41.984375 17.90625 38.703125 
C 17.90625 36.109375 16.796875 33.21875 15.296875 29.421875 
C 10.40625 16.359375 10.40625 13.0625 10.40625 10.671875 
C 10.40625 1.1875 17.203125 -1 22.203125 -1 
C 25.09375 -1 28.703125 -0.109375 32.203125 3.59375 
L 32.296875 3.484375 
C 30.796875 -2.203125 29.796875 -5.609375 26.296875 -10.515625 
z
" id="CMMI12-121"/>
      <path d="M 17 11.25 
C 13.5 5.234375 10.09375 3.203125 5.296875 2.890625 
C 4.203125 2.796875 3.40625 2.796875 3.40625 1 
C 3.40625 0.390625 3.90625 0 4.59375 0 
C 6.40625 0 10.90625 0.1875 12.703125 0.1875 
C 15.59375 0.1875 18.796875 0 21.59375 0 
C 22.203125 0 23.40625 0 23.40625 1.890625 
C 23.40625 2.796875 22.59375 2.890625 22 2.890625 
C 19.703125 3.09375 17.796875 3.90625 17.796875 6.359375 
C 17.796875 7.78125 18.40625 8.90625 19.703125 11.15625 
L 27.296875 24 
L 52.796875 24 
C 52.90625 23.078125 52.90625 22.265625 53 21.34375 
C 53.296875 18.6875 54.5 8.09375 54.5 6.15625 
C 54.5 3.09375 49.40625 2.890625 47.796875 2.890625 
C 46.703125 2.890625 45.59375 2.890625 45.59375 1.09375 
C 45.59375 0 46.5 0 47.09375 0 
C 48.796875 0 50.796875 0.1875 52.5 0.1875 
L 58.203125 0.1875 
C 64.296875 0.1875 68.703125 0 68.796875 0 
C 69.5 0 70.59375 0 70.59375 1.890625 
C 70.59375 2.890625 69.703125 2.890625 68.203125 2.890625 
C 62.703125 2.890625 62.59375 3.8125 62.296875 6.875 
L 56.203125 68.796875 
C 56 70.796875 55.59375 71 54.5 71 
C 53.5 71 52.90625 70.796875 52 69.296875 
z
M 29 26.890625 
L 49.09375 59.859375 
L 52.5 26.890625 
z
" id="CMMI12-65"/>
      <path d="M 37.703125 23 
L 64.203125 23 
C 65.59375 23 67.296875 23 67.296875 24.6875 
C 67.296875 26.5 65.703125 26.5 64.203125 26.5 
L 37.703125 26.5 
L 37.703125 52.890625 
C 37.703125 54.296875 37.703125 56 36 56 
C 34.203125 56 34.203125 54.390625 34.203125 52.890625 
L 34.203125 26.5 
L 7.703125 26.5 
C 6.296875 26.5 4.59375 26.5 4.59375 24.796875 
C 4.59375 23 6.203125 23 7.703125 23 
L 34.203125 23 
L 34.203125 -3.03125 
C 34.203125 -4.40625 34.203125 -6.109375 35.90625 -6.109375 
C 37.703125 -6.109375 37.703125 -4.515625 37.703125 -3.03125 
z
" id="CMR17-43"/>
      <path d="M 36.59375 61.171875 
C 37.5 64.890625 37.90625 65.09375 41.796875 65.09375 
L 54.796875 65.09375 
C 66.09375 65.09375 66.09375 55.421875 66.09375 54.515625 
C 66.09375 46.359375 58 36 44.796875 36 
L 30.40625 36 
z
M 53.5 35.1875 
C 64.40625 37.203125 74.296875 44.859375 74.296875 54.109375 
C 74.296875 61.96875 67.40625 68 56.09375 68 
L 24 68 
C 22.09375 68 21.203125 68 21.203125 66.09375 
C 21.203125 65.09375 22.09375 65.09375 23.59375 65.09375 
C 29.703125 65.09375 29.703125 64.28125 29.703125 63.171875 
C 29.703125 62.984375 29.703125 62.375 29.296875 60.859375 
L 15.796875 7.328125 
C 14.90625 3.875 14.703125 2.890625 7.703125 2.890625 
C 5.796875 2.890625 4.796875 2.890625 4.796875 1.09375 
C 4.796875 0 5.40625 0 7.40625 0 
L 41.703125 0 
C 57 0 68.796875 11.453125 68.796875 21.390625 
C 68.796875 29.46875 61.59375 34.390625 53.5 35.1875 
z
M 39.296875 2.890625 
L 25.796875 2.890625 
C 24.40625 2.890625 24.203125 2.890625 23.59375 2.984375 
C 22.5 3.09375 22.40625 3.28125 22.40625 4.078125 
C 22.40625 4.765625 22.59375 5.359375 22.796875 6.234375 
L 29.796875 34 
L 48.59375 34 
C 60.40625 34 60.40625 23.171875 60.40625 22.375 
C 60.40625 12.9375 51.703125 2.890625 39.296875 2.890625 
z
" id="CMMI12-66"/>
      <path d="M 13.90625 22.296875 
C 17.09375 21 20.5 21 22.40625 21 
C 25 21 30.203125 21 30.203125 24.28125 
C 30.203125 26.296875 28.296875 27 23.203125 27 
C 20.703125 27 17.703125 26.6875 14.203125 25.1875 
C 11.09375 26.6875 9.90625 28.953125 9.90625 31.109375 
C 9.90625 37.171875 19.703125 40.6875 28.59375 40.6875 
C 30.296875 40.6875 33.90625 40.6875 38.09375 37.65625 
C 38.703125 37.265625 39 36.96875 39.703125 36.96875 
C 40.90625 36.96875 42.203125 38.25 42.203125 39.421875 
C 42.203125 41.1875 36.40625 45 29.5 45 
C 18.296875 45 7.703125 38.34375 7.703125 31.109375 
C 7.703125 27.484375 10.09375 25.1875 11.796875 23.5625 
C 6 20.125 2.59375 14.890625 2.59375 10.140625 
C 2.59375 3.453125 8.796875 -2 18.40625 -2 
C 31.59375 -2 36.90625 6.65625 36.90625 8.015625 
C 36.90625 8.5 36.5 8.875 36 8.875 
C 35.5 8.875 35.296875 8.59375 34.90625 8.015625 
C 33.796875 6.171875 31.203125 2.296875 19.296875 2.296875 
C 13.09375 2.296875 4.90625 3.84375 4.90625 10.71875 
C 4.90625 14.015625 7.40625 18.953125 13.90625 22.296875 
z
M 17 23.703125 
C 19.703125 24.984375 22.296875 24.984375 23 24.984375 
C 25.796875 24.984375 26.296875 24.703125 27.90625 24.140625 
C 26.203125 23 26 23 22.40625 23 
C 20.59375 23 19 23 17 23.703125 
z
" id="CMMI12-34"/>
      <path d="M 4.296875 -12.40625 
C 3.59375 -15.328125 3.203125 -16.109375 -0.90625 -16.109375 
C -2.109375 -16.109375 -3.109375 -16.109375 -3.109375 -18 
C -3.109375 -18.203125 -3 -19 -1.90625 -19 
C -0.609375 -19 0.796875 -18.8125 2.09375 -18.8125 
L 6.40625 -18.8125 
C 8.5 -18.8125 13.59375 -19 15.703125 -19 
C 16.296875 -19 17.5 -19 17.5 -17.203125 
C 17.5 -16.109375 16.796875 -16.109375 15.09375 -16.109375 
C 10.5 -16.109375 10.203125 -15.421875 10.203125 -14.640625 
C 10.203125 -13.484375 14.703125 3.390625 15.296875 5.6875 
C 16.40625 2.890625 19.09375 -1 24.296875 -1 
C 35.59375 -1 47.796875 13.65625 47.796875 28.328125 
C 47.796875 37.5 42.59375 44 35.09375 44 
C 28.703125 44 23.296875 37.796875 22.203125 36.40625 
C 21.40625 41.390625 17.5 44 13.5 44 
C 10.59375 44 8.296875 42.59375 6.40625 38.796875 
C 4.59375 35.203125 3.203125 29.125 3.203125 28.71875 
C 3.203125 28.328125 3.59375 27.828125 4.296875 27.828125 
C 5.09375 27.828125 5.203125 27.921875 5.796875 30.21875 
C 7.296875 36.109375 9.203125 41.984375 13.203125 41.984375 
C 15.5 41.984375 16.296875 40.390625 16.296875 37.40625 
C 16.296875 35.015625 16 34.015625 15.59375 32.21875 
z
M 21.59375 31.125 
C 22.296875 33.90625 25.09375 36.8125 26.703125 38.203125 
C 27.796875 39.203125 31.09375 41.984375 34.90625 41.984375 
C 39.296875 41.984375 41.296875 37.609375 41.296875 32.421875 
C 41.296875 27.625 38.5 16.359375 36 11.171875 
C 33.5 5.78125 28.90625 1 24.296875 1 
C 17.5 1 16.40625 9.578125 16.40625 9.96875 
C 16.40625 10.265625 16.59375 11.0625 16.703125 11.5625 
z
" id="CMMI12-112"/>
      <path d="M 20.59375 29.21875 
C 20.796875 29.828125 23.296875 34.8125 27 38 
C 29.59375 40.390625 33 41.984375 36.90625 41.984375 
C 40.90625 41.984375 42.296875 39 42.296875 35.015625 
C 42.296875 29.328125 38.203125 17.953125 36.203125 12.5625 
C 35.296875 10.171875 34.796875 8.875 34.796875 7.078125 
C 34.796875 2.59375 37.90625 -1 42.703125 -1 
C 52 -1 55.5 13.65625 55.5 14.265625 
C 55.5 14.765625 55.09375 15.15625 54.5 15.15625 
C 53.59375 15.15625 53.5 14.859375 53 13.15625 
C 50.703125 4.984375 46.90625 1 43 1 
C 42 1 40.40625 1.09375 40.40625 4.28125 
C 40.40625 6.78125 41.5 9.765625 42.09375 11.171875 
C 44.09375 16.65625 48.296875 27.828125 48.296875 33.515625 
C 48.296875 39.5 44.796875 44 37.203125 44 
C 28.296875 44 23.59375 37.703125 21.796875 35.203125 
C 21.5 40.890625 17.40625 44 13 44 
C 9.796875 44 7.59375 42.09375 5.90625 38.703125 
C 4.09375 35.109375 2.703125 29.125 2.703125 28.71875 
C 2.703125 28.328125 3.09375 27.828125 3.796875 27.828125 
C 4.59375 27.828125 4.703125 27.921875 5.296875 30.21875 
C 6.90625 36.3125 8.703125 41.984375 12.703125 41.984375 
C 15 41.984375 15.796875 40.390625 15.796875 37.40625 
C 15.796875 35.203125 14.796875 31.3125 14.09375 28.234375 
L 11.296875 17.453125 
C 10.90625 15.5625 9.796875 11.0625 9.296875 9.265625 
C 8.59375 6.671875 7.5 1.984375 7.5 1.484375 
C 7.5 0.09375 8.59375 -1 10.09375 -1 
C 11.296875 -1 12.703125 -0.40625 13.5 1.09375 
C 13.703125 1.59375 14.59375 5.078125 15.09375 7.078125 
L 17.296875 16.0625 
z
" id="CMMI12-110"/>
      <path d="M 30.5 -56.0625 
C 30.5 -41.84375 28 -21.734375 14.90625 -4.8125 
C 13.90625 -3.609375 7.40625 4 5.59375 4 
C 5.09375 4 4.40625 3.796875 4.40625 3 
C 4.40625 2.59375 4.59375 2.296875 5 2 
C 9.796875 -3.21875 16.296875 -11.328125 20.40625 -27.234375 
C 22.703125 -36.34375 23.59375 -46.65625 23.59375 -55.953125 
C 23.59375 -66.0625 22.703125 -76.28125 20.09375 -86.078125 
C 16.296875 -100.09375 10.40625 -108.109375 5.296875 -113.703125 
C 4.40625 -114.609375 4.40625 -114.8125 4.40625 -115 
C 4.40625 -115.8125 5.09375 -116 5.59375 -116 
C 7.09375 -116 12.59375 -109.90625 13.796875 -108.5 
C 24 -96.390625 30.5 -78.375 30.5 -56.0625 
z
" id="CMEX10-1"/>
     </defs>
     <g transform="translate(16.936595 316.26212)rotate(-90)scale(0.2 -0.2)">
      <use transform="scale(0.996264)" xlink:href="#CMR17-108"/>
      <use transform="translate(24.871058 0)scale(0.996264)" xlink:href="#CMR17-110"/>
      <use transform="translate(92.370833 80.698084)scale(0.996264)" xlink:href="#CMEX10-0"/>
      <use transform="translate(138.033187 0)scale(0.996264)" xlink:href="#CMR17-49"/>
      <use transform="translate(205.862871 0)scale(0.996264)" xlink:href="#CMSY10-0"/>
      <use transform="translate(305.489546 0)scale(0.996264)" xlink:href="#CMMI12-27"/>
      <use transform="translate(364.5096 36.153639)scale(0.697382)" xlink:href="#CMMI12-121"/>
      <use transform="translate(400.804706 0)scale(0.996264)" xlink:href="#CMMI12-61"/>
      <use transform="translate(466.18403 80.698084)scale(0.996264)" xlink:href="#CMEX10-0"/>
      <use transform="translate(511.846384 0)scale(0.996264)" xlink:href="#CMMI12-65"/>
      <use transform="translate(607.113476 0)scale(0.996264)" xlink:href="#CMR17-43"/>
      <use transform="translate(700.967472 0)scale(0.996264)" xlink:href="#CMMI12-66"/>
      <use transform="translate(780.102995 0)scale(0.996264)" xlink:href="#CMMI12-34"/>
      <use transform="translate(825.753188 36.153639)scale(0.697382)" xlink:href="#CMMI12-112"/>
      <use transform="translate(860.024694 61.461065)scale(0.498132)" xlink:href="#CMMI12-110"/>
      <use transform="translate(890.135974 80.698084)scale(0.996264)" xlink:href="#CMEX10-1"/>
      <use transform="translate(935.798328 80.698084)scale(0.996264)" xlink:href="#CMEX10-1"/>
     </g>
    </g>
   </g>
   <g id="line2d_17">
    <defs>
     <path d="M -3 3 
L 3 3 
L 3 -3 
L -3 -3 
z
" id="m94ef7d96e7" style="stroke:#bb0000;stroke-linejoin:miter;"/>
    </defs>
    <g clip-path="url(#p93fc32a23b)">
     <use style="fill:#bb0000;stroke:#bb0000;stroke-linejoin:miter;" x="100.620733" xlink:href="#m94ef7d96e7" y="275.075457"/>
     <use style="fill:#bb0000;stroke:#bb0000;stroke-linejoin:miter;" x="404.98437" xlink:href="#m94ef7d96e7" y="155.731567"/>
     <use style="fill:#bb0000;stroke:#bb0000;stroke-linejoin:miter;" x="583.025684" xlink:href="#m94ef7d96e7" y="75.729916"/>
     <use style="fill:#bb0000;stroke:#bb0000;stroke-linejoin:miter;" x="709.348006" xlink:href="#m94ef7d96e7" y="31.657685"/>
    </g>
   </g>
   <g id="line2d_18">
    <path clip-path="url(#p93fc32a23b)" d="M 100.620733 282.781427 
L 404.98437 151.27435 
L 583.025684 74.347641 
L 709.348006 19.767273 
" style="fill:none;stroke:#bb0000;stroke-linecap:square;stroke-width:4;"/>
   </g>
   <g id="line2d_19">
    <defs>
     <path d="M -3 3 
L 3 3 
L 3 -3 
L -3 -3 
z
" id="md6f0b8e6be" style="stroke:#00bb00;stroke-linejoin:miter;"/>
    </defs>
    <g clip-path="url(#p93fc32a23b)">
     <use style="fill:#00bb00;stroke:#00bb00;stroke-linejoin:miter;" x="100.620733" xlink:href="#md6f0b8e6be" y="387.988713"/>
     <use style="fill:#00bb00;stroke:#00bb00;stroke-linejoin:miter;" x="404.98437" xlink:href="#md6f0b8e6be" y="208.724929"/>
     <use style="fill:#00bb00;stroke:#00bb00;stroke-linejoin:miter;" x="583.025684" xlink:href="#md6f0b8e6be" y="119.650297"/>
     <use style="fill:#00bb00;stroke:#00bb00;stroke-linejoin:miter;" x="709.348006" xlink:href="#md6f0b8e6be" y="69.76004"/>
    </g>
   </g>
   <g id="line2d_20">
    <path clip-path="url(#p93fc32a23b)" d="M 100.620733 384.449801 
L 404.98437 219.450968 
L 583.025684 122.932838 
L 709.348006 54.452136 
" style="fill:none;stroke:#00bb00;stroke-linecap:square;stroke-width:4;"/>
   </g>
   <g id="line2d_21">
    <defs>
     <path d="M -3 3 
L 3 3 
L 3 -3 
L -3 -3 
z
" id="mf9ad35cb77" style="stroke:#0000bb;stroke-linejoin:miter;"/>
    </defs>
    <g clip-path="url(#p93fc32a23b)">
     <use style="fill:#0000bb;stroke:#0000bb;stroke-linejoin:miter;" x="100.620733" xlink:href="#mf9ad35cb77" y="415.112727"/>
     <use style="fill:#0000bb;stroke:#0000bb;stroke-linejoin:miter;" x="404.98437" xlink:href="#mf9ad35cb77" y="219.302257"/>
     <use style="fill:#0000bb;stroke:#0000bb;stroke-linejoin:miter;" x="583.025684" xlink:href="#mf9ad35cb77" y="128.271501"/>
     <use style="fill:#0000bb;stroke:#0000bb;stroke-linejoin:miter;" x="709.348006" xlink:href="#mf9ad35cb77" y="78.589712"/>
    </g>
   </g>
   <g id="line2d_22">
    <path clip-path="url(#p93fc32a23b)" d="M 100.620733 407.492826 
L 404.98437 234.903123 
L 583.025684 133.94462 
L 709.348006 62.313421 
" style="fill:none;stroke:#0000bb;stroke-linecap:square;stroke-width:4;"/>
   </g>
   <g id="line2d_23">
    <defs>
     <path d="M -3 3 
L 3 3 
L 3 -3 
L -3 -3 
z
" id="m59e271757b" style="stroke:#bbbb00;stroke-linejoin:miter;"/>
    </defs>
    <g clip-path="url(#p93fc32a23b)">
     <use style="fill:#bbbb00;stroke:#bbbb00;stroke-linejoin:miter;" x="100.620733" xlink:href="#m59e271757b" y="412.985226"/>
     <use style="fill:#bbbb00;stroke:#bbbb00;stroke-linejoin:miter;" x="404.98437" xlink:href="#m59e271757b" y="222.523662"/>
     <use style="fill:#bbbb00;stroke:#bbbb00;stroke-linejoin:miter;" x="583.025684" xlink:href="#m59e271757b" y="127.529643"/>
     <use style="fill:#bbbb00;stroke:#bbbb00;stroke-linejoin:miter;" x="709.348006" xlink:href="#m59e271757b" y="78.848713"/>
    </g>
   </g>
   <g id="line2d_24">
    <path clip-path="url(#p93fc32a23b)" d="M 100.620733 407.362726 
L 404.98437 234.815882 
L 583.025684 133.882448 
L 709.348006 62.269037 
" style="fill:none;stroke:#bbbb00;stroke-linecap:square;stroke-width:4;"/>
   </g>
   <g id="line2d_25">
    <defs>
     <path d="M -3 3 
L 3 3 
L 3 -3 
L -3 -3 
z
" id="mcbd86ca085" style="stroke:#bb00bb;stroke-linejoin:miter;"/>
    </defs>
    <g clip-path="url(#p93fc32a23b)">
     <use style="fill:#bb00bb;stroke:#bb00bb;stroke-linejoin:miter;" x="100.620733" xlink:href="#mcbd86ca085" y="391.35402"/>
     <use style="fill:#bb00bb;stroke:#bb00bb;stroke-linejoin:miter;" x="404.98437" xlink:href="#mcbd86ca085" y="212.028847"/>
     <use style="fill:#bb00bb;stroke:#bb00bb;stroke-linejoin:miter;" x="583.025684" xlink:href="#mcbd86ca085" y="122.447648"/>
     <use style="fill:#bb00bb;stroke:#bb00bb;stroke-linejoin:miter;" x="709.348006" xlink:href="#mcbd86ca085" y="76.373898"/>
    </g>
   </g>
   <g id="line2d_26">
    <path clip-path="url(#p93fc32a23b)" d="M 100.620733 389.562283 
L 404.98437 222.879289 
L 583.025684 125.375987 
L 709.348006 56.196294 
" style="fill:none;stroke:#bb00bb;stroke-linecap:square;stroke-width:4;"/>
   </g>
   <g id="line2d_27">
    <defs>
     <path d="M -3 3 
L 3 3 
L 3 -3 
L -3 -3 
z
" id="m6f51bcad7e" style="stroke:#00bbbb;stroke-linejoin:miter;"/>
    </defs>
    <g clip-path="url(#p93fc32a23b)">
     <use style="fill:#00bbbb;stroke:#00bbbb;stroke-linejoin:miter;" x="100.620733" xlink:href="#m6f51bcad7e" y="358.178951"/>
     <use style="fill:#00bbbb;stroke:#00bbbb;stroke-linejoin:miter;" x="404.98437" xlink:href="#m6f51bcad7e" y="199.715417"/>
     <use style="fill:#00bbbb;stroke:#00bbbb;stroke-linejoin:miter;" x="583.025684" xlink:href="#m6f51bcad7e" y="113.819022"/>
     <use style="fill:#00bbbb;stroke:#00bbbb;stroke-linejoin:miter;" x="709.348006" xlink:href="#m6f51bcad7e" y="69.046909"/>
    </g>
   </g>
   <g id="line2d_28">
    <path clip-path="url(#p93fc32a23b)" d="M 100.620733 362.782063 
L 404.98437 204.921051 
L 583.025684 112.578278 
L 709.348006 47.060038 
" style="fill:none;stroke:#00bbbb;stroke-linecap:square;stroke-width:4;"/>
   </g>
   <g id="line2d_29">
    <defs>
     <path d="M -3 3 
L 3 3 
L 3 -3 
L -3 -3 
z
" id="m8d63b132bb" style="stroke:#bbbbbb;stroke-linejoin:miter;"/>
    </defs>
    <g clip-path="url(#p93fc32a23b)">
     <use style="fill:#bbbbbb;stroke:#bbbbbb;stroke-linejoin:miter;" x="100.620733" xlink:href="#m8d63b132bb" y="328.292406"/>
     <use style="fill:#bbbbbb;stroke:#bbbbbb;stroke-linejoin:miter;" x="404.98437" xlink:href="#m8d63b132bb" y="185.442621"/>
     <use style="fill:#bbbbbb;stroke:#bbbbbb;stroke-linejoin:miter;" x="583.025684" xlink:href="#m8d63b132bb" y="105.205714"/>
     <use style="fill:#bbbbbb;stroke:#bbbbbb;stroke-linejoin:miter;" x="709.348006" xlink:href="#m8d63b132bb" y="60.14098"/>
    </g>
   </g>
   <g id="line2d_30">
    <path clip-path="url(#p93fc32a23b)" d="M 100.620733 336.806146 
L 404.98437 187.502161 
L 583.025684 100.164929 
L 709.348006 38.198176 
" style="fill:none;stroke:#bbbbbb;stroke-linecap:square;stroke-width:4;"/>
   </g>
   <g id="line2d_31">
    <defs>
     <path d="M -3 3 
L 3 3 
L 3 -3 
L -3 -3 
z
" id="m9ea182ae87" style="stroke:#770000;stroke-linejoin:miter;"/>
    </defs>
    <g clip-path="url(#p93fc32a23b)">
     <use style="fill:#770000;stroke:#770000;stroke-linejoin:miter;" x="100.620733" xlink:href="#m9ea182ae87" y="304.97612"/>
     <use style="fill:#770000;stroke:#770000;stroke-linejoin:miter;" x="404.98437" xlink:href="#m9ea182ae87" y="174.258654"/>
     <use style="fill:#770000;stroke:#770000;stroke-linejoin:miter;" x="583.025684" xlink:href="#m9ea182ae87" y="97.795157"/>
     <use style="fill:#770000;stroke:#770000;stroke-linejoin:miter;" x="709.348006" xlink:href="#m9ea182ae87" y="53.264041"/>
    </g>
   </g>
   <g id="line2d_32">
    <path clip-path="url(#p93fc32a23b)" d="M 100.620733 316.352053 
L 404.98437 173.786087 
L 583.025684 90.390344 
L 709.348006 31.220122 
" style="fill:none;stroke:#770000;stroke-linecap:square;stroke-width:4;"/>
   </g>
   <g id="line2d_33">
    <defs>
     <path d="M -3 3 
L 3 3 
L 3 -3 
L -3 -3 
z
" id="mf280ef402c" style="stroke:#007700;stroke-linejoin:miter;"/>
    </defs>
    <g clip-path="url(#p93fc32a23b)">
     <use style="fill:#007700;stroke:#007700;stroke-linejoin:miter;" x="100.620733" xlink:href="#mf280ef402c" y="297.676457"/>
     <use style="fill:#007700;stroke:#007700;stroke-linejoin:miter;" x="404.98437" xlink:href="#mf280ef402c" y="167.317098"/>
     <use style="fill:#007700;stroke:#007700;stroke-linejoin:miter;" x="583.025684" xlink:href="#mf280ef402c" y="91.928923"/>
     <use style="fill:#007700;stroke:#007700;stroke-linejoin:miter;" x="709.348006" xlink:href="#mf280ef402c" y="49.40478"/>
    </g>
   </g>
   <g id="line2d_34">
    <path clip-path="url(#p93fc32a23b)" d="M 100.620733 307.394073 
L 404.98437 167.779059 
L 583.025684 86.109512 
L 709.348006 28.164046 
" style="fill:none;stroke:#007700;stroke-linecap:square;stroke-width:4;"/>
   </g>
   <g id="line2d_35">
    <defs>
     <path d="M -3 3 
L 3 3 
L 3 -3 
L -3 -3 
z
" id="mf3aa482111" style="stroke:#000077;stroke-linejoin:miter;"/>
    </defs>
    <g clip-path="url(#p93fc32a23b)">
     <use style="fill:#000077;stroke:#000077;stroke-linejoin:miter;" x="100.620733" xlink:href="#mf3aa482111" y="300.028298"/>
     <use style="fill:#000077;stroke:#000077;stroke-linejoin:miter;" x="404.98437" xlink:href="#mf3aa482111" y="164.790075"/>
     <use style="fill:#000077;stroke:#000077;stroke-linejoin:miter;" x="583.025684" xlink:href="#mf3aa482111" y="91.551596"/>
     <use style="fill:#000077;stroke:#000077;stroke-linejoin:miter;" x="709.348006" xlink:href="#mf3aa482111" y="47.476994"/>
    </g>
   </g>
   <g id="line2d_36">
    <path clip-path="url(#p93fc32a23b)" d="M 100.620733 307.293361 
L 404.98437 167.711524 
L 583.025684 86.061384 
L 709.348006 28.129687 
" style="fill:none;stroke:#000077;stroke-linecap:square;stroke-width:4;"/>
   </g>
   <g id="patch_3">
    <path d="M 70.18437 434.88 
L 70.18437 -0 
" style="fill:none;stroke:#000000;stroke-linecap:square;stroke-linejoin:miter;stroke-width:0.8;"/>
   </g>
   <g id="patch_4">
    <path d="M 739.78437 434.88 
L 739.78437 -0 
" style="fill:none;stroke:#000000;stroke-linecap:square;stroke-linejoin:miter;stroke-width:0.8;"/>
   </g>
   <g id="patch_5">
    <path d="M 70.18437 434.88 
L 739.78437 434.88 
" style="fill:none;stroke:#000000;stroke-linecap:square;stroke-linejoin:miter;stroke-width:0.8;"/>
   </g>
   <g id="patch_6">
    <path d="M 70.18437 0 
L 739.78437 0 
" style="fill:none;stroke:#000000;stroke-linecap:square;stroke-linejoin:miter;stroke-width:0.8;"/>
   </g>
   <g id="legend_1">
    <g id="patch_7">
     <path d="M 623.779688 427.88 
L 729.98437 427.88 
Q 732.78437 427.88 732.78437 425.08 
L 732.78437 231.359716 
Q 732.78437 228.559716 729.98437 228.559716 
L 623.779688 228.559716 
Q 620.979688 228.559716 620.979688 231.359716 
L 620.979688 425.08 
Q 620.979688 427.88 623.779688 427.88 
z
" style="fill:#ffffff;opacity:0.8;stroke:#cccccc;stroke-linejoin:miter;"/>
    </g>
    <g id="line2d_37"/>
    <g id="line2d_38">
     <g>
      <use style="fill:#bb0000;stroke:#bb0000;stroke-linejoin:miter;" x="640.579688" xlink:href="#m94ef7d96e7" y="239.059716"/>
     </g>
    </g>
    <g id="text_19">
     <!-- $\varepsilon^p=0.025$ -->
     <defs>
      <path d="M 64.296875 32 
C 65.796875 32 67.296875 32 67.296875 33.6875 
C 67.296875 35.5 65.59375 35.5 63.90625 35.5 
L 8 35.5 
C 6.296875 35.5 4.59375 35.5 4.59375 33.6875 
C 4.59375 32 6.09375 32 7.59375 32 
z
M 63.90625 14.484375 
C 65.59375 14.484375 67.296875 14.484375 67.296875 16.296875 
C 67.296875 18 65.796875 18 64.296875 18 
L 7.59375 18 
C 6.09375 18 4.59375 18 4.59375 16.296875 
C 4.59375 14.484375 6.296875 14.484375 8 14.484375 
z
" id="CMR17-61"/>
      <path d="M 11.40625 58.59375 
C 12.40625 58.1875 16.5 56.890625 20.703125 56.890625 
C 30 56.890625 35.09375 61.890625 38 64.6875 
C 38 65.484375 38 66 37.40625 66 
C 37.296875 66 37.09375 66 36.296875 65.59375 
C 32.796875 64.09375 28.703125 63 23.703125 63 
C 20.703125 63 16.203125 63.359375 11.296875 65.484375 
C 10.203125 66 10 66 9.90625 66 
C 9.40625 66 9.296875 65.890625 9.296875 63.90625 
L 9.296875 34.859375 
C 9.296875 33.015625 9.296875 32.5 10.296875 32.5 
C 10.796875 32.5 11 32.703125 11.5 33.421875 
C 14.703125 38.046875 19.09375 40 24.09375 40 
C 27.59375 40 35.09375 37.734375 35.09375 20.203125 
C 35.09375 16.984375 35.09375 11.1875 32.09375 6.59375 
C 29.59375 2.484375 25.703125 0.390625 21.40625 0.390625 
C 14.796875 0.390625 8.09375 4.984375 6.296875 12.6875 
C 6.703125 12.59375 7.5 12.390625 7.90625 12.390625 
C 9.203125 12.390625 11.703125 13.09375 11.703125 16.1875 
C 11.703125 18.890625 9.796875 20 7.90625 20 
C 5.59375 20 4.09375 18.59375 4.09375 15.796875 
C 4.09375 7.09375 11 -2 21.59375 -2 
C 31.90625 -2 41.703125 6.890625 41.703125 19.796875 
C 41.703125 32.09375 33.90625 41.59375 24.203125 41.59375 
C 19.09375 41.59375 14.796875 39.6875 11.40625 36 
z
" id="CMR17-53"/>
     </defs>
     <g transform="translate(665.779688 243.959716)scale(0.14 -0.14)">
      <use transform="scale(0.996264)" xlink:href="#CMMI12-34"/>
      <use transform="translate(45.650192 36.153639)scale(0.697382)" xlink:href="#CMMI12-112"/>
      <use transform="translate(108.093839 0)scale(0.996264)" xlink:href="#CMR17-61"/>
      <use transform="translate(207.482637 0)scale(0.996264)" xlink:href="#CMR17-48"/>
      <use transform="translate(253.173114 0)scale(0.996264)" xlink:href="#CMMI12-58"/>
      <use transform="translate(280.270291 0)scale(0.996264)" xlink:href="#CMR17-48"/>
      <use transform="translate(325.960768 0)scale(0.996264)" xlink:href="#CMR17-50"/>
      <use transform="translate(371.651245 0)scale(0.996264)" xlink:href="#CMR17-53"/>
     </g>
    </g>
    <g id="line2d_39"/>
    <g id="line2d_40">
     <g>
      <use style="fill:#00bb00;stroke:#00bb00;stroke-linejoin:miter;" x="640.579688" xlink:href="#md6f0b8e6be" y="258.571745"/>
     </g>
    </g>
    <g id="text_20">
     <!-- $\varepsilon^p=0.1$ -->
     <g transform="translate(665.779688 263.471745)scale(0.14 -0.14)">
      <use transform="scale(0.996264)" xlink:href="#CMMI12-34"/>
      <use transform="translate(45.650192 36.153639)scale(0.697382)" xlink:href="#CMMI12-112"/>
      <use transform="translate(108.093839 0)scale(0.996264)" xlink:href="#CMR17-61"/>
      <use transform="translate(207.482637 0)scale(0.996264)" xlink:href="#CMR17-48"/>
      <use transform="translate(253.173114 0)scale(0.996264)" xlink:href="#CMMI12-58"/>
      <use transform="translate(280.270291 0)scale(0.996264)" xlink:href="#CMR17-49"/>
     </g>
    </g>
    <g id="line2d_41"/>
    <g id="line2d_42">
     <g>
      <use style="fill:#0000bb;stroke:#0000bb;stroke-linejoin:miter;" x="640.579688" xlink:href="#mf9ad35cb77" y="278.083773"/>
     </g>
    </g>
    <g id="text_21">
     <!-- $\varepsilon^p=0.175$ -->
     <defs>
      <path d="M 45.09375 61.796875 
L 45.09375 64 
L 21.59375 64 
C 9.90625 64 9.703125 65.09375 9.296875 67 
L 7.5 67 
L 4.59375 48.5 
L 6.40625 48.5 
C 6.703125 50.40625 7.40625 55.5 8.59375 57.390625 
C 9.203125 58.1875 16.59375 58.1875 18.296875 58.1875 
L 40.296875 58.1875 
L 29.203125 41.71875 
C 21.796875 30.640625 16.703125 15.671875 16.703125 2.59375 
C 16.703125 1.390625 16.703125 -2 20.296875 -2 
C 23.90625 -2 23.90625 1.390625 23.90625 2.6875 
L 23.90625 7.28125 
C 23.90625 23.65625 26.703125 34.4375 31.296875 41.3125 
z
" id="CMR17-55"/>
     </defs>
     <g transform="translate(665.779688 282.983773)scale(0.14 -0.14)">
      <use transform="scale(0.996264)" xlink:href="#CMMI12-34"/>
      <use transform="translate(45.650192 36.153639)scale(0.697382)" xlink:href="#CMMI12-112"/>
      <use transform="translate(108.093839 0)scale(0.996264)" xlink:href="#CMR17-61"/>
      <use transform="translate(207.482637 0)scale(0.996264)" xlink:href="#CMR17-48"/>
      <use transform="translate(253.173114 0)scale(0.996264)" xlink:href="#CMMI12-58"/>
      <use transform="translate(280.270291 0)scale(0.996264)" xlink:href="#CMR17-49"/>
      <use transform="translate(325.960768 0)scale(0.996264)" xlink:href="#CMR17-55"/>
      <use transform="translate(371.651245 0)scale(0.996264)" xlink:href="#CMR17-53"/>
     </g>
    </g>
    <g id="line2d_43"/>
    <g id="line2d_44">
     <g>
      <use style="fill:#bbbb00;stroke:#bbbb00;stroke-linejoin:miter;" x="640.579688" xlink:href="#m59e271757b" y="297.595801"/>
     </g>
    </g>
    <g id="text_22">
     <!-- $\varepsilon^p=0.25$ -->
     <g transform="translate(665.779688 302.495801)scale(0.14 -0.14)">
      <use transform="scale(0.996264)" xlink:href="#CMMI12-34"/>
      <use transform="translate(45.650192 36.153639)scale(0.697382)" xlink:href="#CMMI12-112"/>
      <use transform="translate(108.093839 0)scale(0.996264)" xlink:href="#CMR17-61"/>
      <use transform="translate(207.482637 0)scale(0.996264)" xlink:href="#CMR17-48"/>
      <use transform="translate(253.173114 0)scale(0.996264)" xlink:href="#CMMI12-58"/>
      <use transform="translate(280.270291 0)scale(0.996264)" xlink:href="#CMR17-50"/>
      <use transform="translate(325.960768 0)scale(0.996264)" xlink:href="#CMR17-53"/>
     </g>
    </g>
    <g id="line2d_45"/>
    <g id="line2d_46">
     <g>
      <use style="fill:#bb00bb;stroke:#bb00bb;stroke-linejoin:miter;" x="640.579688" xlink:href="#mcbd86ca085" y="317.10783"/>
     </g>
    </g>
    <g id="text_23">
     <!-- $\varepsilon^p=0.325$ -->
     <defs>
      <path d="M 22.09375 34 
C 31 34 34.90625 26.140625 34.90625 17.09375 
C 34.90625 5.03125 28.5 0.390625 22.703125 0.390625 
C 17.40625 0.390625 8.796875 3.015625 6.09375 10.796875 
C 6.59375 10.59375 7.09375 10.59375 7.59375 10.59375 
C 10 10.59375 11.796875 12.1875 11.796875 14.796875 
C 11.796875 17.6875 9.59375 19 7.59375 19 
C 5.90625 19 3.296875 18.1875 3.296875 14.484375 
C 3.296875 5.234375 12.296875 -2 22.90625 -2 
C 34 -2 42.5 6.75 42.5 16.984375 
C 42.5 26.84375 34.5 34 25 35.09375 
C 32.59375 36.671875 39.90625 43.375 39.90625 52.390625 
C 39.90625 60.25 32 66 23 66 
C 13.90625 66 5.90625 60.34375 5.90625 52.296875 
C 5.90625 48.796875 8.5 48.1875 9.796875 48.1875 
C 11.90625 48.1875 13.703125 49.484375 13.703125 52.09375 
C 13.703125 54.6875 11.90625 56 9.796875 56 
C 9.40625 56 8.90625 56 8.5 55.796875 
C 11.40625 62.484375 19.296875 63.6875 22.796875 63.6875 
C 26.296875 63.6875 32.90625 61.96875 32.90625 52.296875 
C 32.90625 49.484375 32.5 44.546875 29.09375 40.21875 
C 26.09375 36.390625 22.703125 36.1875 19.40625 35.890625 
C 18.90625 35.890625 16.59375 35.6875 16.203125 35.6875 
C 15.5 35.59375 15.09375 35.5 15.09375 34.796875 
C 15.09375 34.09375 15.203125 34 17.203125 34 
z
" id="CMR17-51"/>
     </defs>
     <g transform="translate(665.779688 322.00783)scale(0.14 -0.14)">
      <use transform="scale(0.996264)" xlink:href="#CMMI12-34"/>
      <use transform="translate(45.650192 36.153639)scale(0.697382)" xlink:href="#CMMI12-112"/>
      <use transform="translate(108.093839 0)scale(0.996264)" xlink:href="#CMR17-61"/>
      <use transform="translate(207.482637 0)scale(0.996264)" xlink:href="#CMR17-48"/>
      <use transform="translate(253.173114 0)scale(0.996264)" xlink:href="#CMMI12-58"/>
      <use transform="translate(280.270291 0)scale(0.996264)" xlink:href="#CMR17-51"/>
      <use transform="translate(325.960768 0)scale(0.996264)" xlink:href="#CMR17-50"/>
      <use transform="translate(371.651245 0)scale(0.996264)" xlink:href="#CMR17-53"/>
     </g>
    </g>
    <g id="line2d_47"/>
    <g id="line2d_48">
     <g>
      <use style="fill:#00bbbb;stroke:#00bbbb;stroke-linejoin:miter;" x="640.579688" xlink:href="#m6f51bcad7e" y="336.619858"/>
     </g>
    </g>
    <g id="text_24">
     <!-- $\varepsilon^p=0.4$ -->
     <g transform="translate(665.779688 341.519858)scale(0.14 -0.14)">
      <use transform="scale(0.996264)" xlink:href="#CMMI12-34"/>
      <use transform="translate(45.650192 36.153639)scale(0.697382)" xlink:href="#CMMI12-112"/>
      <use transform="translate(108.093839 0)scale(0.996264)" xlink:href="#CMR17-61"/>
      <use transform="translate(207.482637 0)scale(0.996264)" xlink:href="#CMR17-48"/>
      <use transform="translate(253.173114 0)scale(0.996264)" xlink:href="#CMMI12-58"/>
      <use transform="translate(280.270291 0)scale(0.996264)" xlink:href="#CMR17-52"/>
     </g>
    </g>
    <g id="line2d_49"/>
    <g id="line2d_50">
     <g>
      <use style="fill:#bbbbbb;stroke:#bbbbbb;stroke-linejoin:miter;" x="640.579688" xlink:href="#m8d63b132bb" y="356.131886"/>
     </g>
    </g>
    <g id="text_25">
     <!-- $\varepsilon^p=0.475$ -->
     <g transform="translate(665.779688 361.031886)scale(0.14 -0.14)">
      <use transform="scale(0.996264)" xlink:href="#CMMI12-34"/>
      <use transform="translate(45.650192 36.153639)scale(0.697382)" xlink:href="#CMMI12-112"/>
      <use transform="translate(108.093839 0)scale(0.996264)" xlink:href="#CMR17-61"/>
      <use transform="translate(207.482637 0)scale(0.996264)" xlink:href="#CMR17-48"/>
      <use transform="translate(253.173114 0)scale(0.996264)" xlink:href="#CMMI12-58"/>
      <use transform="translate(280.270291 0)scale(0.996264)" xlink:href="#CMR17-52"/>
      <use transform="translate(325.960768 0)scale(0.996264)" xlink:href="#CMR17-55"/>
      <use transform="translate(371.651245 0)scale(0.996264)" xlink:href="#CMR17-53"/>
     </g>
    </g>
    <g id="line2d_51"/>
    <g id="line2d_52">
     <g>
      <use style="fill:#770000;stroke:#770000;stroke-linejoin:miter;" x="640.579688" xlink:href="#m9ea182ae87" y="375.643915"/>
     </g>
    </g>
    <g id="text_26">
     <!-- $\varepsilon^p=0.55$ -->
     <g transform="translate(665.779688 380.543915)scale(0.14 -0.14)">
      <use transform="scale(0.996264)" xlink:href="#CMMI12-34"/>
      <use transform="translate(45.650192 36.153639)scale(0.697382)" xlink:href="#CMMI12-112"/>
      <use transform="translate(108.093839 0)scale(0.996264)" xlink:href="#CMR17-61"/>
      <use transform="translate(207.482637 0)scale(0.996264)" xlink:href="#CMR17-48"/>
      <use transform="translate(253.173114 0)scale(0.996264)" xlink:href="#CMMI12-58"/>
      <use transform="translate(280.270291 0)scale(0.996264)" xlink:href="#CMR17-53"/>
      <use transform="translate(325.960768 0)scale(0.996264)" xlink:href="#CMR17-53"/>
     </g>
    </g>
    <g id="line2d_53"/>
    <g id="line2d_54">
     <g>
      <use style="fill:#007700;stroke:#007700;stroke-linejoin:miter;" x="640.579688" xlink:href="#mf280ef402c" y="395.155943"/>
     </g>
    </g>
    <g id="text_27">
     <!-- $\varepsilon^p=0.625$ -->
     <g transform="translate(665.779688 400.055943)scale(0.14 -0.14)">
      <use transform="scale(0.996264)" xlink:href="#CMMI12-34"/>
      <use transform="translate(45.650192 36.153639)scale(0.697382)" xlink:href="#CMMI12-112"/>
      <use transform="translate(108.093839 0)scale(0.996264)" xlink:href="#CMR17-61"/>
      <use transform="translate(207.482637 0)scale(0.996264)" xlink:href="#CMR17-48"/>
      <use transform="translate(253.173114 0)scale(0.996264)" xlink:href="#CMMI12-58"/>
      <use transform="translate(280.270291 0)scale(0.996264)" xlink:href="#CMR17-54"/>
      <use transform="translate(325.960768 0)scale(0.996264)" xlink:href="#CMR17-50"/>
      <use transform="translate(371.651245 0)scale(0.996264)" xlink:href="#CMR17-53"/>
     </g>
    </g>
    <g id="line2d_55"/>
    <g id="line2d_56">
     <g>
      <use style="fill:#000077;stroke:#000077;stroke-linejoin:miter;" x="640.579688" xlink:href="#mf3aa482111" y="414.667972"/>
     </g>
    </g>
    <g id="text_28">
     <!-- $\varepsilon^p=0.7$ -->
     <g transform="translate(665.779688 419.567972)scale(0.14 -0.14)">
      <use transform="scale(0.996264)" xlink:href="#CMMI12-34"/>
      <use transform="translate(45.650192 36.153639)scale(0.697382)" xlink:href="#CMMI12-112"/>
      <use transform="translate(108.093839 0)scale(0.996264)" xlink:href="#CMR17-61"/>
      <use transform="translate(207.482637 0)scale(0.996264)" xlink:href="#CMR17-48"/>
      <use transform="translate(253.173114 0)scale(0.996264)" xlink:href="#CMMI12-58"/>
      <use transform="translate(280.270291 0)scale(0.996264)" xlink:href="#CMR17-55"/>
     </g>
    </g>
   </g>
  </g>
 </g>
 <defs>
  <clipPath id="p93fc32a23b">
   <rect height="434.88" width="669.6" x="70.18437" y="0"/>
  </clipPath>
 </defs>
</svg>
