<?xml version="1.0" encoding="utf-8" standalone="no"?>
<!DOCTYPE svg PUBLIC "-//W3C//DTD SVG 1.1//EN"
  "http://www.w3.org/Graphics/SVG/1.1/DTD/svg11.dtd">
<!-- Created with matplotlib (https://matplotlib.org/) -->
<svg height="468.904741pt" version="1.1" viewBox="0 0 709.270303 468.904741" width="709.270303pt" xmlns="http://www.w3.org/2000/svg" xmlns:xlink="http://www.w3.org/1999/xlink">
 <defs>
  <style type="text/css">
*{stroke-linecap:butt;stroke-linejoin:round;}
  </style>
 </defs>
 <g id="figure_1">
  <g id="patch_1">
   <path d="M 0 468.904741 
L 709.270303 468.904741 
L 709.270303 0 
L 0 0 
z
" style="fill:#ffffff;"/>
  </g>
  <g id="axes_1">
   <g id="patch_2">
    <path d="M 39.670303 434.88 
L 709.270303 434.88 
L 709.270303 -0 
L 39.670303 -0 
z
" style="fill:#ffffff;"/>
   </g>
   <g id="matplotlib.axis_1">
    <g id="xtick_1">
     <g id="line2d_1">
      <defs>
       <path d="M 0 0 
L 0 3.5 
" id="m08bdedf53e" style="stroke:#000000;stroke-width:0.8;"/>
      </defs>
      <g>
       <use style="stroke:#000000;stroke-width:0.8;" x="134.984307" xlink:href="#m08bdedf53e" y="434.88"/>
      </g>
     </g>
     <g id="text_1">
      <!-- $-6$ -->
      <defs>
       <path d="M 65.90625 23 
C 67.59375 23 69.40625 23 69.40625 25 
C 69.40625 27 67.59375 27 65.90625 27 
L 11.796875 27 
C 10.09375 27 8.296875 27 8.296875 25 
C 8.296875 23 10.09375 23 11.796875 23 
z
" id="CMSY10-0"/>
       <path d="M 10.59375 34.34375 
C 10.59375 58 21.796875 63.6875 28.296875 63.6875 
C 30.40625 63.6875 35.5 63.265625 37.5 59.09375 
C 35.90625 59.09375 32.90625 59.09375 32.90625 55.59375 
C 32.90625 52.890625 35.09375 52 36.5 52 
C 37.40625 52 40.09375 52.390625 40.09375 55.796875 
C 40.09375 62.296875 35.09375 66 28.203125 66 
C 16.296875 66 3.796875 53.296875 3.796875 31.421875 
C 3.796875 4.015625 15.09375 -2 23.09375 -2 
C 32.796875 -2 42 6.734375 42 20.234375 
C 42 32.828125 33.90625 42 23.703125 42 
C 17.59375 42 13.09375 37.96875 10.59375 30.921875 
z
M 23.09375 0.390625 
C 10.796875 0.390625 10.796875 18.9375 10.796875 22.65625 
C 10.796875 29.90625 14.203125 40.390625 23.5 40.390625 
C 25.203125 40.390625 30.09375 40.390625 33.40625 33.4375 
C 35.203125 29.515625 35.203125 25.375 35.203125 20.34375 
C 35.203125 14.90625 35.203125 10.875 33.09375 6.84375 
C 30.90625 2.703125 27.703125 0.390625 23.09375 0.390625 
z
" id="CMR17-54"/>
      </defs>
      <g transform="translate(128.619267 448.798498)scale(0.1 -0.1)">
       <use transform="scale(0.996264)" xlink:href="#CMSY10-0"/>
       <use transform="translate(77.487468 0)scale(0.996264)" xlink:href="#CMR17-54"/>
      </g>
     </g>
    </g>
    <g id="xtick_2">
     <g id="line2d_2">
      <g>
       <use style="stroke:#000000;stroke-width:0.8;" x="277.925123" xlink:href="#m08bdedf53e" y="434.88"/>
      </g>
     </g>
     <g id="text_2">
      <!-- $-4$ -->
      <defs>
       <path d="M 33.59375 64.796875 
C 33.59375 66.890625 33.5 67 31.703125 67 
L 2 19.59375 
L 2 17 
L 27.796875 17 
L 27.796875 7.1875 
C 27.796875 3.59375 27.59375 2.59375 20.59375 2.59375 
L 18.703125 2.59375 
L 18.703125 0 
C 21.90625 0.1875 27.296875 0.1875 30.703125 0.1875 
C 34.09375 0.1875 39.5 0.1875 42.703125 0 
L 42.703125 2.59375 
L 40.796875 2.59375 
C 33.796875 2.59375 33.59375 3.59375 33.59375 7.1875 
L 33.59375 17 
L 43.796875 17 
L 43.796875 19.59375 
L 33.59375 19.59375 
z
M 28.09375 58.171875 
L 28.09375 19.59375 
L 4 19.59375 
z
" id="CMR17-52"/>
      </defs>
      <g transform="translate(271.560084 448.798498)scale(0.1 -0.1)">
       <use transform="scale(0.996264)" xlink:href="#CMSY10-0"/>
       <use transform="translate(77.487468 0)scale(0.996264)" xlink:href="#CMR17-52"/>
      </g>
     </g>
    </g>
    <g id="xtick_3">
     <g id="line2d_3">
      <g>
       <use style="stroke:#000000;stroke-width:0.8;" x="420.865939" xlink:href="#m08bdedf53e" y="434.88"/>
      </g>
     </g>
     <g id="text_3">
      <!-- $-2$ -->
      <defs>
       <path d="M 41.703125 15.46875 
L 39.90625 15.46875 
C 38.90625 8.390625 38.09375 7.1875 37.703125 6.59375 
C 37.203125 5.796875 30 5.796875 28.59375 5.796875 
L 9.40625 5.796875 
C 13 9.6875 20 16.765625 28.5 24.9375 
C 34.59375 30.71875 41.703125 37.5 41.703125 47.390625 
C 41.703125 59.1875 32.296875 66 21.796875 66 
C 10.796875 66 4.09375 56.296875 4.09375 47.296875 
C 4.09375 43.390625 7 42.890625 8.203125 42.890625 
C 9.203125 42.890625 12.203125 43.484375 12.203125 46.984375 
C 12.203125 50.09375 9.59375 51 8.203125 51 
C 7.59375 51 7 50.890625 6.59375 50.6875 
C 8.5 59.1875 14.296875 63.390625 20.40625 63.390625 
C 29.09375 63.390625 34.796875 56.5 34.796875 47.390625 
C 34.796875 38.703125 29.703125 31.21875 24 24.734375 
L 4.09375 2.296875 
L 4.09375 0 
L 39.296875 0 
z
" id="CMR17-50"/>
      </defs>
      <g transform="translate(414.5009 448.798498)scale(0.1 -0.1)">
       <use transform="scale(0.996264)" xlink:href="#CMSY10-0"/>
       <use transform="translate(77.487468 0)scale(0.996264)" xlink:href="#CMR17-50"/>
      </g>
     </g>
    </g>
    <g id="xtick_4">
     <g id="line2d_4">
      <g>
       <use style="stroke:#000000;stroke-width:0.8;" x="563.806755" xlink:href="#m08bdedf53e" y="434.88"/>
      </g>
     </g>
     <g id="text_4">
      <!-- $0$ -->
      <defs>
       <path d="M 42 31.84375 
C 42 37.96875 41.90625 48.421875 37.703125 56.453125 
C 34 63.484375 28.09375 66 22.90625 66 
C 18.09375 66 12 63.78125 8.203125 56.5625 
C 4.203125 49.015625 3.796875 39.671875 3.796875 31.84375 
C 3.796875 26.109375 3.90625 17.375 7 9.734375 
C 11.296875 -0.609375 19 -2 22.90625 -2 
C 27.5 -2 34.5 -0.109375 38.59375 9.4375 
C 41.59375 16.375 42 24.5 42 31.84375 
z
M 22.90625 -0.40625 
C 16.5 -0.40625 12.703125 5.125 11.296875 12.75 
C 10.203125 18.6875 10.203125 27.328125 10.203125 32.953125 
C 10.203125 40.6875 10.203125 47.109375 11.5 53.234375 
C 13.40625 61.78125 19 64.390625 22.90625 64.390625 
C 27 64.390625 32.296875 61.671875 34.203125 53.4375 
C 35.5 47.71875 35.59375 40.984375 35.59375 32.953125 
C 35.59375 26.421875 35.59375 18.375 34.40625 12.453125 
C 32.296875 1.5 26.40625 -0.40625 22.90625 -0.40625 
z
" id="CMR17-48"/>
      </defs>
      <g transform="translate(561.316088 448.798498)scale(0.1 -0.1)">
       <use transform="scale(0.996264)" xlink:href="#CMR17-48"/>
      </g>
     </g>
    </g>
    <g id="xtick_5">
     <g id="line2d_5">
      <g>
       <use style="stroke:#000000;stroke-width:0.8;" x="706.747571" xlink:href="#m08bdedf53e" y="434.88"/>
      </g>
     </g>
     <g id="text_5">
      <!-- $2$ -->
      <g transform="translate(704.256904 448.798498)scale(0.1 -0.1)">
       <use transform="scale(0.996264)" xlink:href="#CMR17-50"/>
      </g>
     </g>
    </g>
    <g id="text_6">
     <!-- $\ln\ \dot{\varepsilon^{p}}$ -->
     <defs>
      <path d="M 15.296875 69 
L 3.40625 67.890625 
L 3.40625 65.296875 
C 9.296875 65.296875 10.203125 64.703125 10.203125 59.921875 
L 10.203125 6.859375 
C 10.203125 3.09375 9.796875 2.59375 3.40625 2.59375 
L 3.40625 0 
C 5.796875 0.1875 10.203125 0.1875 12.703125 0.1875 
C 15.296875 0.1875 19.703125 0.1875 22.09375 0 
L 22.09375 2.59375 
C 15.703125 2.59375 15.296875 2.984375 15.296875 6.859375 
z
" id="CMR17-108"/>
      <path d="M 41.5 30.53125 
C 41.5 35.65625 40.5 44 28.703125 44 
C 20.796875 44 16.703125 37.875 15.203125 33.84375 
L 15.09375 33.84375 
L 15.09375 44 
L 3.296875 42.890625 
L 3.296875 40.28125 
C 9.203125 40.28125 10.09375 39.6875 10.09375 34.859375 
L 10.09375 6.921875 
C 10.09375 3.09375 9.703125 2.59375 3.296875 2.59375 
L 3.296875 0 
C 5.703125 0.1875 10.09375 0.1875 12.703125 0.1875 
C 15.296875 0.1875 19.796875 0.1875 22.203125 0 
L 22.203125 2.59375 
C 15.796875 2.59375 15.40625 3 15.40625 6.921875 
L 15.40625 26.21875 
C 15.40625 35.453125 21 42.390625 28 42.390625 
C 35.40625 42.390625 36.203125 35.765625 36.203125 30.9375 
L 36.203125 6.921875 
C 36.203125 3.09375 35.796875 2.59375 29.40625 2.59375 
L 29.40625 0 
C 31.796875 0.1875 36.203125 0.1875 38.796875 0.1875 
C 41.40625 0.1875 45.90625 0.1875 48.296875 0 
L 48.296875 2.59375 
C 41.90625 2.59375 41.5 3 41.5 6.921875 
z
" id="CMR17-110"/>
      <path d="M 16.5 61.890625 
C 16.5 64.296875 14.59375 66 12.5 66 
C 10.09375 66 8.40625 64.09375 8.40625 61.890625 
C 8.40625 59.484375 10.296875 57.796875 12.40625 57.796875 
C 14.796875 57.796875 16.5 59.6875 16.5 61.890625 
z
" id="CMR17-95"/>
      <path d="M 13.90625 22.296875 
C 17.09375 21 20.5 21 22.40625 21 
C 25 21 30.203125 21 30.203125 24.28125 
C 30.203125 26.296875 28.296875 27 23.203125 27 
C 20.703125 27 17.703125 26.6875 14.203125 25.1875 
C 11.09375 26.6875 9.90625 28.953125 9.90625 31.109375 
C 9.90625 37.171875 19.703125 40.6875 28.59375 40.6875 
C 30.296875 40.6875 33.90625 40.6875 38.09375 37.65625 
C 38.703125 37.265625 39 36.96875 39.703125 36.96875 
C 40.90625 36.96875 42.203125 38.25 42.203125 39.421875 
C 42.203125 41.1875 36.40625 45 29.5 45 
C 18.296875 45 7.703125 38.34375 7.703125 31.109375 
C 7.703125 27.484375 10.09375 25.1875 11.796875 23.5625 
C 6 20.125 2.59375 14.890625 2.59375 10.140625 
C 2.59375 3.453125 8.796875 -2 18.40625 -2 
C 31.59375 -2 36.90625 6.65625 36.90625 8.015625 
C 36.90625 8.5 36.5 8.875 36 8.875 
C 35.5 8.875 35.296875 8.59375 34.90625 8.015625 
C 33.796875 6.171875 31.203125 2.296875 19.296875 2.296875 
C 13.09375 2.296875 4.90625 3.84375 4.90625 10.71875 
C 4.90625 14.015625 7.40625 18.953125 13.90625 22.296875 
z
M 17 23.703125 
C 19.703125 24.984375 22.296875 24.984375 23 24.984375 
C 25.796875 24.984375 26.296875 24.703125 27.90625 24.140625 
C 26.203125 23 26 23 22.40625 23 
C 20.59375 23 19 23 17 23.703125 
z
" id="CMMI12-34"/>
      <path d="M 4.296875 -12.40625 
C 3.59375 -15.328125 3.203125 -16.109375 -0.90625 -16.109375 
C -2.109375 -16.109375 -3.109375 -16.109375 -3.109375 -18 
C -3.109375 -18.203125 -3 -19 -1.90625 -19 
C -0.609375 -19 0.796875 -18.8125 2.09375 -18.8125 
L 6.40625 -18.8125 
C 8.5 -18.8125 13.59375 -19 15.703125 -19 
C 16.296875 -19 17.5 -19 17.5 -17.203125 
C 17.5 -16.109375 16.796875 -16.109375 15.09375 -16.109375 
C 10.5 -16.109375 10.203125 -15.421875 10.203125 -14.640625 
C 10.203125 -13.484375 14.703125 3.390625 15.296875 5.6875 
C 16.40625 2.890625 19.09375 -1 24.296875 -1 
C 35.59375 -1 47.796875 13.65625 47.796875 28.328125 
C 47.796875 37.5 42.59375 44 35.09375 44 
C 28.703125 44 23.296875 37.796875 22.203125 36.40625 
C 21.40625 41.390625 17.5 44 13.5 44 
C 10.59375 44 8.296875 42.59375 6.40625 38.796875 
C 4.59375 35.203125 3.203125 29.125 3.203125 28.71875 
C 3.203125 28.328125 3.59375 27.828125 4.296875 27.828125 
C 5.09375 27.828125 5.203125 27.921875 5.796875 30.21875 
C 7.296875 36.109375 9.203125 41.984375 13.203125 41.984375 
C 15.5 41.984375 16.296875 40.390625 16.296875 37.40625 
C 16.296875 35.015625 16 34.015625 15.59375 32.21875 
z
M 21.59375 31.125 
C 22.296875 33.90625 25.09375 36.8125 26.703125 38.203125 
C 27.796875 39.203125 31.09375 41.984375 34.90625 41.984375 
C 39.296875 41.984375 41.296875 37.609375 41.296875 32.421875 
C 41.296875 27.625 38.5 16.359375 36 11.171875 
C 33.5 5.78125 28.90625 1 24.296875 1 
C 17.5 1 16.40625 9.578125 16.40625 9.96875 
C 16.40625 10.265625 16.59375 11.0625 16.703125 11.5625 
z
" id="CMMI12-112"/>
     </defs>
     <g transform="translate(357.578326 465.805265)scale(0.16 -0.16)">
      <use transform="scale(0.996264)" xlink:href="#CMR17-108"/>
      <use transform="translate(24.871058 0)scale(0.996264)" xlink:href="#CMR17-110"/>
      <use transform="translate(151.374332 15.918866)scale(0.996264)" xlink:href="#CMR17-95"/>
      <use transform="translate(123.599946 0)scale(0.996264)" xlink:href="#CMMI12-34"/>
      <use transform="translate(169.250139 28.780957)scale(0.697382)" xlink:href="#CMMI12-112"/>
     </g>
    </g>
   </g>
   <g id="matplotlib.axis_2">
    <g id="ytick_1">
     <g id="line2d_6">
      <defs>
       <path d="M 0 0 
L -3.5 0 
" id="m578fe5f118" style="stroke:#000000;stroke-width:0.8;"/>
      </defs>
      <g>
       <use style="stroke:#000000;stroke-width:0.8;" x="39.670303" xlink:href="#m578fe5f118" y="342.86514"/>
      </g>
     </g>
     <g id="text_7">
      <!-- $3.0$ -->
      <defs>
       <path d="M 22.09375 34 
C 31 34 34.90625 26.140625 34.90625 17.09375 
C 34.90625 5.03125 28.5 0.390625 22.703125 0.390625 
C 17.40625 0.390625 8.796875 3.015625 6.09375 10.796875 
C 6.59375 10.59375 7.09375 10.59375 7.59375 10.59375 
C 10 10.59375 11.796875 12.1875 11.796875 14.796875 
C 11.796875 17.6875 9.59375 19 7.59375 19 
C 5.90625 19 3.296875 18.1875 3.296875 14.484375 
C 3.296875 5.234375 12.296875 -2 22.90625 -2 
C 34 -2 42.5 6.75 42.5 16.984375 
C 42.5 26.84375 34.5 34 25 35.09375 
C 32.59375 36.671875 39.90625 43.375 39.90625 52.390625 
C 39.90625 60.25 32 66 23 66 
C 13.90625 66 5.90625 60.34375 5.90625 52.296875 
C 5.90625 48.796875 8.5 48.1875 9.796875 48.1875 
C 11.90625 48.1875 13.703125 49.484375 13.703125 52.09375 
C 13.703125 54.6875 11.90625 56 9.796875 56 
C 9.40625 56 8.90625 56 8.5 55.796875 
C 11.40625 62.484375 19.296875 63.6875 22.796875 63.6875 
C 26.296875 63.6875 32.90625 61.96875 32.90625 52.296875 
C 32.90625 49.484375 32.5 44.546875 29.09375 40.21875 
C 26.09375 36.390625 22.703125 36.1875 19.40625 35.890625 
C 18.90625 35.890625 16.59375 35.6875 16.203125 35.6875 
C 15.5 35.59375 15.09375 35.5 15.09375 34.796875 
C 15.09375 34.09375 15.203125 34 17.203125 34 
z
" id="CMR17-51"/>
       <path d="M 18.40625 4.796875 
C 18.40625 7.6875 16 9.6875 13.59375 9.6875 
C 10.703125 9.6875 8.703125 7.296875 8.703125 4.890625 
C 8.703125 2 11.09375 0 13.5 0 
C 16.40625 0 18.40625 2.390625 18.40625 4.796875 
z
" id="CMMI12-58"/>
      </defs>
      <g transform="translate(19.940224 346.32439)scale(0.1 -0.1)">
       <use transform="scale(0.996264)" xlink:href="#CMR17-51"/>
       <use transform="translate(45.690477 0)scale(0.996264)" xlink:href="#CMMI12-58"/>
       <use transform="translate(72.787654 0)scale(0.996264)" xlink:href="#CMR17-48"/>
      </g>
     </g>
    </g>
    <g id="ytick_2">
     <g id="line2d_7">
      <g>
       <use style="stroke:#000000;stroke-width:0.8;" x="39.670303" xlink:href="#m578fe5f118" y="249.397387"/>
      </g>
     </g>
     <g id="text_8">
      <!-- $3.5$ -->
      <defs>
       <path d="M 11.40625 58.59375 
C 12.40625 58.1875 16.5 56.890625 20.703125 56.890625 
C 30 56.890625 35.09375 61.890625 38 64.6875 
C 38 65.484375 38 66 37.40625 66 
C 37.296875 66 37.09375 66 36.296875 65.59375 
C 32.796875 64.09375 28.703125 63 23.703125 63 
C 20.703125 63 16.203125 63.359375 11.296875 65.484375 
C 10.203125 66 10 66 9.90625 66 
C 9.40625 66 9.296875 65.890625 9.296875 63.90625 
L 9.296875 34.859375 
C 9.296875 33.015625 9.296875 32.5 10.296875 32.5 
C 10.796875 32.5 11 32.703125 11.5 33.421875 
C 14.703125 38.046875 19.09375 40 24.09375 40 
C 27.59375 40 35.09375 37.734375 35.09375 20.203125 
C 35.09375 16.984375 35.09375 11.1875 32.09375 6.59375 
C 29.59375 2.484375 25.703125 0.390625 21.40625 0.390625 
C 14.796875 0.390625 8.09375 4.984375 6.296875 12.6875 
C 6.703125 12.59375 7.5 12.390625 7.90625 12.390625 
C 9.203125 12.390625 11.703125 13.09375 11.703125 16.1875 
C 11.703125 18.890625 9.796875 20 7.90625 20 
C 5.59375 20 4.09375 18.59375 4.09375 15.796875 
C 4.09375 7.09375 11 -2 21.59375 -2 
C 31.90625 -2 41.703125 6.890625 41.703125 19.796875 
C 41.703125 32.09375 33.90625 41.59375 24.203125 41.59375 
C 19.09375 41.59375 14.796875 39.6875 11.40625 36 
z
" id="CMR17-53"/>
      </defs>
      <g transform="translate(19.940224 252.856637)scale(0.1 -0.1)">
       <use transform="scale(0.996264)" xlink:href="#CMR17-51"/>
       <use transform="translate(45.690477 0)scale(0.996264)" xlink:href="#CMMI12-58"/>
       <use transform="translate(72.787654 0)scale(0.996264)" xlink:href="#CMR17-53"/>
      </g>
     </g>
    </g>
    <g id="ytick_3">
     <g id="line2d_8">
      <g>
       <use style="stroke:#000000;stroke-width:0.8;" x="39.670303" xlink:href="#m578fe5f118" y="155.929635"/>
      </g>
     </g>
     <g id="text_9">
      <!-- $4.0$ -->
      <g transform="translate(19.940224 159.388884)scale(0.1 -0.1)">
       <use transform="scale(0.996264)" xlink:href="#CMR17-52"/>
       <use transform="translate(45.690477 0)scale(0.996264)" xlink:href="#CMMI12-58"/>
       <use transform="translate(72.787654 0)scale(0.996264)" xlink:href="#CMR17-48"/>
      </g>
     </g>
    </g>
    <g id="ytick_4">
     <g id="line2d_9">
      <g>
       <use style="stroke:#000000;stroke-width:0.8;" x="39.670303" xlink:href="#m578fe5f118" y="62.461882"/>
      </g>
     </g>
     <g id="text_10">
      <!-- $4.5$ -->
      <g transform="translate(19.940224 65.921131)scale(0.1 -0.1)">
       <use transform="scale(0.996264)" xlink:href="#CMR17-52"/>
       <use transform="translate(45.690477 0)scale(0.996264)" xlink:href="#CMMI12-58"/>
       <use transform="translate(72.787654 0)scale(0.996264)" xlink:href="#CMR17-53"/>
      </g>
     </g>
    </g>
    <g id="text_11">
     <!-- $\ln\ \sigma(MPa)$ -->
     <defs>
      <path d="M 50.796875 37.59375 
C 52.09375 37.59375 55.40625 37.59375 55.40625 40.796875 
C 55.40625 43 53.5 43 51.703125 43 
L 29.59375 43 
C 14.59375 43 3.796875 26.328125 3.796875 14.5625 
C 3.796875 6.078125 9.296875 -1 18.296875 -1 
C 30.09375 -1 43 11.65625 43 26.625 
C 43 30.515625 42.09375 34.296875 39.703125 37.59375 
z
M 18.40625 1 
C 13.296875 1 9.59375 4.875 9.59375 11.765625 
C 9.59375 17.75 13.203125 37.59375 27.90625 37.59375 
C 32.203125 37.59375 37 35.5 37 27.8125 
C 37 24.328125 35.40625 15.953125 31.90625 10.171875 
C 28.296875 4.28125 22.90625 1 18.40625 1 
z
" id="CMMI12-27"/>
      <path d="M 30.59375 -24.40625 
C 30.59375 -24.3125 30.59375 -24.109375 30.296875 -23.8125 
C 25.703125 -19.109375 13.40625 -6.296875 13.40625 24.9375 
C 13.40625 56.171875 25.5 68.875 30.40625 73.890625 
C 30.40625 73.984375 30.59375 74.1875 30.59375 74.484375 
C 30.59375 74.796875 30.296875 75 29.90625 75 
C 28.796875 75 20.296875 67.578125 15.40625 56.5625 
C 10.40625 45.453125 9 34.65625 9 25.046875 
C 9 17.828125 9.703125 5.625 15.703125 -7.296875 
C 20.5 -17.703125 28.703125 -25 29.90625 -25 
C 30.40625 -25 30.59375 -24.8125 30.59375 -24.40625 
z
" id="CMR17-40"/>
      <path d="M 90.796875 60.71875 
C 91.703125 64.09375 91.90625 65.09375 99 65.09375 
C 100.90625 65.09375 101.796875 65.09375 101.796875 66.984375 
C 101.796875 68 101.09375 68 99.203125 68 
L 87.203125 68 
C 84.703125 68 84.59375 67.890625 83.5 66.296875 
L 47 8.859375 
L 39.5 65.796875 
C 39.203125 68 39.09375 68 36.5 68 
L 24.09375 68 
C 22.203125 68 21.296875 68 21.296875 66.09375 
C 21.296875 65.09375 22.203125 65.09375 23.703125 65.09375 
C 29.796875 65.09375 29.796875 64.296875 29.796875 63.203125 
C 29.796875 63 29.796875 62.40625 29.40625 60.90625 
L 16.59375 10.15625 
C 15.40625 5.375 13.09375 3.1875 6.40625 2.890625 
C 6.09375 2.890625 4.90625 2.796875 4.90625 1.09375 
C 4.90625 0 5.796875 0 6.203125 0 
C 8.203125 0 13.296875 0.1875 15.296875 0.1875 
L 20.09375 0.1875 
C 21.5 0.1875 23.203125 0 24.59375 0 
C 25.296875 0 26.40625 0 26.40625 1.890625 
C 26.40625 2.796875 25.40625 2.890625 25 2.890625 
C 21.703125 2.984375 18.5 3.59375 18.5 7.171875 
C 18.5 8.171875 18.5 8.265625 18.90625 9.65625 
L 32.703125 64.5 
L 32.796875 64.5 
L 41.09375 2.6875 
C 41.40625 0.296875 41.5 0 42.40625 0 
C 43.5 0 44 0.796875 44.5 1.6875 
L 84.703125 64.984375 
L 84.796875 64.984375 
L 70.296875 7.375 
C 69.40625 3.890625 69.203125 2.890625 62.203125 2.890625 
C 60.296875 2.890625 59.296875 2.890625 59.296875 1.09375 
C 59.296875 0 60.203125 0 60.796875 0 
C 62.5 0 64.5 0.1875 66.203125 0.1875 
L 78 0.1875 
C 79.703125 0.1875 81.796875 0 83.5 0 
C 84.296875 0 85.40625 0 85.40625 1.890625 
C 85.40625 2.890625 84.5 2.890625 83 2.890625 
C 76.90625 2.890625 76.90625 3.6875 76.90625 4.6875 
C 76.90625 4.78125 76.90625 5.484375 77.09375 6.28125 
z
" id="CMMI12-77"/>
      <path d="M 29.59375 31.59375 
L 46.40625 31.59375 
C 60.203125 31.59375 74 41.765625 74 53.125 
C 74 60.90625 67.40625 68 54.796875 68 
L 23.90625 68 
C 22 68 21.09375 68 21.09375 66.09375 
C 21.09375 65.09375 22 65.09375 23.5 65.09375 
C 29.59375 65.09375 29.59375 64.296875 29.59375 63.203125 
C 29.59375 63 29.59375 62.40625 29.203125 60.90625 
L 15.703125 7.359375 
C 14.796875 3.890625 14.59375 2.890625 7.59375 2.890625 
C 5.703125 2.890625 4.703125 2.890625 4.703125 1.09375 
C 4.703125 0 5.59375 0 6.203125 0 
C 8.09375 0 10.09375 0.1875 12 0.1875 
L 23.703125 0.1875 
C 25.59375 0.1875 27.703125 0 29.59375 0 
C 30.40625 0 31.5 0 31.5 1.890625 
C 31.5 2.890625 30.59375 2.890625 29.09375 2.890625 
C 23.09375 2.890625 23 3.59375 23 4.578125 
C 23 5.078125 23.09375 5.765625 23.203125 6.265625 
z
M 36.796875 61.203125 
C 37.703125 64.890625 38.09375 65.09375 42 65.09375 
L 51.90625 65.09375 
C 59.40625 65.09375 65.59375 62.703125 65.59375 55.21875 
C 65.59375 52.640625 64.296875 44.15625 59.703125 39.578125 
C 58 37.78125 53.203125 34 44.09375 34 
L 30 34 
z
" id="CMMI12-80"/>
      <path d="M 30.09375 11.859375 
C 29.59375 10.171875 29.59375 9.96875 28.203125 8.078125 
C 26 5.28125 21.59375 1 16.90625 1 
C 12.796875 1 10.5 4.6875 10.5 10.5625 
C 10.5 16.0625 13.59375 27.234375 15.5 31.421875 
C 18.90625 38.40625 23.59375 41.984375 27.5 41.984375 
C 34.09375 41.984375 35.40625 33.8125 35.40625 33.015625 
C 35.40625 32.921875 35.09375 31.625 35 31.421875 
z
M 36.5 37.40625 
C 35.40625 40 32.703125 44 27.5 44 
C 16.203125 44 4 29.421875 4 14.65625 
C 4 4.78125 9.796875 -1 16.59375 -1 
C 22.09375 -1 26.796875 3.28125 29.59375 6.578125 
C 30.59375 0.6875 35.296875 -1 38.296875 -1 
C 41.296875 -1 43.703125 0.796875 45.5 4.375 
C 47.09375 7.75 48.5 13.828125 48.5 14.21875 
C 48.5 14.71875 48.09375 15.125 47.5 15.125 
C 46.59375 15.125 46.5 14.625 46.09375 13.125 
C 44.59375 7.265625 42.703125 1 38.59375 1 
C 35.703125 1 35.5 3.578125 35.5 5.5625 
C 35.5 7.859375 35.796875 8.953125 36.703125 12.828125 
C 37.40625 15.3125 37.90625 17.5 38.703125 20.390625 
C 42.40625 35.3125 43.296875 38.890625 43.296875 39.5 
C 43.296875 40.890625 42.203125 42 40.703125 42 
C 37.5 42 36.703125 38.5 36.5 37.3125 
z
" id="CMMI12-97"/>
      <path d="M 26.296875 24.9375 
C 26.296875 32.140625 25.59375 44.359375 19.59375 57.265625 
C 14.796875 67.6875 6.59375 75 5.40625 75 
C 5.09375 75 4.703125 74.890625 4.703125 74.390625 
C 4.703125 74.1875 4.796875 74.09375 4.90625 73.890625 
C 9.703125 68.875 21.90625 56.171875 21.90625 25.046875 
C 21.90625 -6.1875 9.796875 -18.90625 4.90625 -23.90625 
C 4.796875 -24.109375 4.703125 -24.203125 4.703125 -24.40625 
C 4.703125 -24.90625 5.09375 -25 5.40625 -25 
C 6.5 -25 15 -17.609375 19.90625 -6.59375 
C 24.90625 4.515625 26.296875 15.328125 26.296875 24.9375 
z
" id="CMR17-41"/>
     </defs>
     <g transform="translate(11.955168 257.257474)rotate(-90)scale(0.16 -0.16)">
      <use transform="scale(0.996264)" xlink:href="#CMR17-108"/>
      <use transform="translate(24.871058 0)scale(0.996264)" xlink:href="#CMR17-110"/>
      <use transform="translate(123.599946 0)scale(0.996264)" xlink:href="#CMMI12-27"/>
      <use transform="translate(182.62 0)scale(0.996264)" xlink:href="#CMR17-40"/>
      <use transform="translate(217.900768 0)scale(0.996264)" xlink:href="#CMMI12-77"/>
      <use transform="translate(322.680846 0)scale(0.996264)" xlink:href="#CMMI12-80"/>
      <use transform="translate(399.106667 0)scale(0.996264)" xlink:href="#CMMI12-97"/>
      <use transform="translate(450.314525 0)scale(0.996264)" xlink:href="#CMR17-41"/>
     </g>
    </g>
   </g>
   <g id="line2d_10">
    <defs>
     <path d="M -3 3 
L 3 3 
L 3 -3 
L -3 -3 
z
" id="ma76ce38da9" style="stroke:#bb0000;stroke-linejoin:miter;"/>
    </defs>
    <g clip-path="url(#p48acd53940)">
     <use style="fill:#bb0000;stroke:#bb0000;stroke-linejoin:miter;" x="70.106667" xlink:href="#ma76ce38da9" y="241.291682"/>
     <use style="fill:#bb0000;stroke:#bb0000;stroke-linejoin:miter;" x="234.673363" xlink:href="#ma76ce38da9" y="177.406986"/>
     <use style="fill:#bb0000;stroke:#bb0000;stroke-linejoin:miter;" x="399.240059" xlink:href="#ma76ce38da9" y="110.573506"/>
     <use style="fill:#bb0000;stroke:#bb0000;stroke-linejoin:miter;" x="613.346267" xlink:href="#ma76ce38da9" y="41.847287"/>
     <use style="fill:#bb0000;stroke:#bb0000;stroke-linejoin:miter;" x="678.833939" xlink:href="#ma76ce38da9" y="25.818135"/>
    </g>
   </g>
   <g id="line2d_11">
    <path clip-path="url(#p48acd53940)" d="M 70.106667 236.658862 
L 234.673363 178.023191 
L 399.240059 119.387519 
L 613.346267 43.100752 
L 678.833939 19.767273 
" style="fill:none;stroke:#bb0000;stroke-linecap:square;stroke-width:4;"/>
   </g>
   <g id="line2d_12">
    <defs>
     <path d="M -3 3 
L 3 3 
L 3 -3 
L -3 -3 
z
" id="m16844795ac" style="stroke:#00bb00;stroke-linejoin:miter;"/>
    </defs>
    <g clip-path="url(#p48acd53940)">
     <use style="fill:#00bb00;stroke:#00bb00;stroke-linejoin:miter;" x="70.106667" xlink:href="#m16844795ac" y="281.104466"/>
     <use style="fill:#00bb00;stroke:#00bb00;stroke-linejoin:miter;" x="234.673363" xlink:href="#m16844795ac" y="214.785559"/>
     <use style="fill:#00bb00;stroke:#00bb00;stroke-linejoin:miter;" x="399.240059" xlink:href="#m16844795ac" y="149.174376"/>
     <use style="fill:#00bb00;stroke:#00bb00;stroke-linejoin:miter;" x="613.346267" xlink:href="#m16844795ac" y="71.203919"/>
     <use style="fill:#00bb00;stroke:#00bb00;stroke-linejoin:miter;" x="678.833939" xlink:href="#m16844795ac" y="53.140773"/>
    </g>
   </g>
   <g id="line2d_13">
    <path clip-path="url(#p48acd53940)" d="M 70.106667 277.915732 
L 234.673363 215.898775 
L 399.240059 153.881819 
L 613.346267 73.195897 
L 678.833939 48.516869 
" style="fill:none;stroke:#00bb00;stroke-linecap:square;stroke-width:4;"/>
   </g>
   <g id="line2d_14">
    <defs>
     <path d="M -3 3 
L 3 3 
L 3 -3 
L -3 -3 
z
" id="mf573876c39" style="stroke:#0000bb;stroke-linejoin:miter;"/>
    </defs>
    <g clip-path="url(#p48acd53940)">
     <use style="fill:#0000bb;stroke:#0000bb;stroke-linejoin:miter;" x="70.106667" xlink:href="#mf573876c39" y="318.52876"/>
     <use style="fill:#0000bb;stroke:#0000bb;stroke-linejoin:miter;" x="234.673363" xlink:href="#mf573876c39" y="241.033082"/>
     <use style="fill:#0000bb;stroke:#0000bb;stroke-linejoin:miter;" x="399.240059" xlink:href="#mf573876c39" y="185.697958"/>
     <use style="fill:#0000bb;stroke:#0000bb;stroke-linejoin:miter;" x="613.346267" xlink:href="#mf573876c39" y="103.531156"/>
     <use style="fill:#0000bb;stroke:#0000bb;stroke-linejoin:miter;" x="678.833939" xlink:href="#mf573876c39" y="85.114014"/>
    </g>
   </g>
   <g id="line2d_15">
    <path clip-path="url(#p48acd53940)" d="M 70.106667 311.799508 
L 234.673363 249.290251 
L 399.240059 186.780994 
L 613.346267 105.454576 
L 678.833939 80.579642 
" style="fill:none;stroke:#0000bb;stroke-linecap:square;stroke-width:4;"/>
   </g>
   <g id="line2d_16">
    <defs>
     <path d="M -3 3 
L 3 3 
L 3 -3 
L -3 -3 
z
" id="m3c13321e40" style="stroke:#bbbb00;stroke-linejoin:miter;"/>
    </defs>
    <g clip-path="url(#p48acd53940)">
     <use style="fill:#bbbb00;stroke:#bbbb00;stroke-linejoin:miter;" x="70.106667" xlink:href="#m3c13321e40" y="348.411876"/>
     <use style="fill:#bbbb00;stroke:#bbbb00;stroke-linejoin:miter;" x="234.673363" xlink:href="#m3c13321e40" y="276.981253"/>
     <use style="fill:#bbbb00;stroke:#bbbb00;stroke-linejoin:miter;" x="399.240059" xlink:href="#m3c13321e40" y="217.615384"/>
     <use style="fill:#bbbb00;stroke:#bbbb00;stroke-linejoin:miter;" x="613.346267" xlink:href="#m3c13321e40" y="135.890093"/>
     <use style="fill:#bbbb00;stroke:#bbbb00;stroke-linejoin:miter;" x="678.833939" xlink:href="#m3c13321e40" y="114.675822"/>
    </g>
   </g>
   <g id="line2d_17">
    <path clip-path="url(#p48acd53940)" d="M 70.106667 344.441149 
L 234.673363 281.578017 
L 399.240059 218.714886 
L 613.346267 136.928065 
L 678.833939 111.91231 
" style="fill:none;stroke:#bbbb00;stroke-linecap:square;stroke-width:4;"/>
   </g>
   <g id="line2d_18">
    <defs>
     <path d="M -3 3 
L 3 3 
L 3 -3 
L -3 -3 
z
" id="m5df71add79" style="stroke:#bb00bb;stroke-linejoin:miter;"/>
    </defs>
    <g clip-path="url(#p48acd53940)">
     <use style="fill:#bb00bb;stroke:#bb00bb;stroke-linejoin:miter;" x="70.106667" xlink:href="#m5df71add79" y="415.112727"/>
     <use style="fill:#bb00bb;stroke:#bb00bb;stroke-linejoin:miter;" x="234.673363" xlink:href="#m5df71add79" y="308.770601"/>
     <use style="fill:#bb00bb;stroke:#bb00bb;stroke-linejoin:miter;" x="399.240059" xlink:href="#m5df71add79" y="244.667458"/>
     <use style="fill:#bb00bb;stroke:#bb00bb;stroke-linejoin:miter;" x="613.346267" xlink:href="#m5df71add79" y="164.032561"/>
     <use style="fill:#bb00bb;stroke:#bb00bb;stroke-linejoin:miter;" x="678.833939" xlink:href="#m5df71add79" y="148.787025"/>
    </g>
   </g>
   <g id="line2d_19">
    <path clip-path="url(#p48acd53940)" d="M 70.106667 396.745433 
L 234.673363 326.509754 
L 399.240059 256.274075 
L 613.346267 164.895349 
L 678.833939 136.945763 
" style="fill:none;stroke:#bb00bb;stroke-linecap:square;stroke-width:4;"/>
   </g>
   <g id="patch_3">
    <path d="M 39.670303 434.88 
L 39.670303 0 
" style="fill:none;stroke:#000000;stroke-linecap:square;stroke-linejoin:miter;stroke-width:0.8;"/>
   </g>
   <g id="patch_4">
    <path d="M 709.270303 434.88 
L 709.270303 0 
" style="fill:none;stroke:#000000;stroke-linecap:square;stroke-linejoin:miter;stroke-width:0.8;"/>
   </g>
   <g id="patch_5">
    <path d="M 39.670303 434.88 
L 709.270303 434.88 
" style="fill:none;stroke:#000000;stroke-linecap:square;stroke-linejoin:miter;stroke-width:0.8;"/>
   </g>
   <g id="patch_6">
    <path d="M 39.670303 -0 
L 709.270303 -0 
" style="fill:none;stroke:#000000;stroke-linecap:square;stroke-linejoin:miter;stroke-width:0.8;"/>
   </g>
   <g id="legend_1">
    <g id="patch_7">
     <path d="M 583.798058 427.88 
L 699.470303 427.88 
Q 702.270303 427.88 702.270303 425.08 
L 702.270303 328.919858 
Q 702.270303 326.119858 699.470303 326.119858 
L 583.798058 326.119858 
Q 580.998058 326.119858 580.998058 328.919858 
L 580.998058 425.08 
Q 580.998058 427.88 583.798058 427.88 
z
" style="fill:#ffffff;opacity:0.8;stroke:#cccccc;stroke-linejoin:miter;"/>
    </g>
    <g id="line2d_20"/>
    <g id="line2d_21">
     <g>
      <use style="fill:#bb0000;stroke:#bb0000;stroke-linejoin:miter;" x="600.598058" xlink:href="#ma76ce38da9" y="336.619858"/>
     </g>
    </g>
    <g id="text_12">
     <!-- $T=1050^{\circ} C$ -->
     <defs>
      <path d="M 41.703125 60.71875 
C 42.296875 63.09375 42.5 64 44 64.390625 
C 44.796875 64.59375 48.09375 64.59375 50.203125 64.59375 
C 60.203125 64.59375 64.90625 64.203125 64.90625 56.4375 
C 64.90625 54.9375 64.5 51.15625 63.90625 47.46875 
L 63.796875 46.28125 
C 63.796875 45.890625 64.203125 45.28125 64.796875 45.28125 
C 65.796875 45.28125 65.796875 45.78125 66.09375 47.375 
L 69 64.984375 
C 69.203125 65.890625 69.203125 66.09375 69.203125 66.390625 
C 69.203125 67.484375 68.59375 67.484375 66.59375 67.484375 
L 11.90625 67.484375 
C 9.59375 67.484375 9.5 67.390625 8.90625 65.59375 
L 2.796875 47.671875 
C 2.703125 47.46875 2.40625 46.375 2.40625 46.28125 
C 2.40625 45.78125 2.796875 45.28125 3.40625 45.28125 
C 4.203125 45.28125 4.40625 45.6875 4.796875 46.984375 
C 9 59.015625 11.09375 64.59375 24.40625 64.59375 
L 31.09375 64.59375 
C 33.5 64.59375 34.5 64.59375 34.5 63.5 
C 34.5 63.203125 34.5 63 34 61.203125 
L 20.59375 7.765625 
C 19.59375 3.890625 19.40625 2.890625 8.796875 2.890625 
C 6.296875 2.890625 5.59375 2.890625 5.59375 1 
C 5.59375 0 6.703125 0 7.203125 0 
C 9.703125 0 12.296875 0.1875 14.796875 0.1875 
L 30.40625 0.1875 
C 32.90625 0.1875 35.59375 0 38.09375 0 
C 39.203125 0 40.203125 0 40.203125 1.890625 
C 40.203125 2.890625 39.5 2.890625 36.90625 2.890625 
C 27.90625 2.890625 27.90625 3.78125 27.90625 5.28125 
C 27.90625 5.375 27.90625 6.078125 28.296875 7.671875 
z
" id="CMMI12-84"/>
      <path d="M 64.296875 32 
C 65.796875 32 67.296875 32 67.296875 33.6875 
C 67.296875 35.5 65.59375 35.5 63.90625 35.5 
L 8 35.5 
C 6.296875 35.5 4.59375 35.5 4.59375 33.6875 
C 4.59375 32 6.09375 32 7.59375 32 
z
M 63.90625 14.484375 
C 65.59375 14.484375 67.296875 14.484375 67.296875 16.296875 
C 67.296875 18 65.796875 18 64.296875 18 
L 7.59375 18 
C 6.09375 18 4.59375 18 4.59375 16.296875 
C 4.59375 14.484375 6.296875 14.484375 8 14.484375 
z
" id="CMR17-61"/>
      <path d="M 26.59375 63.796875 
C 26.59375 65.890625 26.5 66 25.09375 66 
C 21.203125 61.359375 15.296875 59.890625 9.703125 59.6875 
C 9.40625 59.6875 8.90625 59.6875 8.796875 59.5 
C 8.703125 59.296875 8.703125 59.09375 8.703125 57 
C 11.796875 57 17 57.59375 21 59.984375 
L 21 7.296875 
C 21 3.796875 20.796875 2.59375 12.203125 2.59375 
L 9.203125 2.59375 
L 9.203125 0 
C 14 0.09375 19 0.1875 23.796875 0.1875 
C 28.59375 0.1875 33.59375 0.09375 38.40625 0 
L 38.40625 2.59375 
L 35.40625 2.59375 
C 26.796875 2.59375 26.59375 3.6875 26.59375 7.296875 
z
" id="CMR17-49"/>
      <path d="M 44.40625 24.984375 
C 44.40625 35.40625 35.5 44 25 44 
C 14.203125 44 5.5 35.21875 5.5 24.984375 
C 5.5 14.671875 14.203125 5.984375 25 5.984375 
C 35.5 5.984375 44.40625 14.5625 44.40625 24.984375 
z
M 25 10 
C 16.296875 10 9.5 16.8125 9.5 24.984375 
C 9.5 33.171875 16.40625 40 25 40 
C 33.296875 40 40.40625 33.375 40.40625 24.984375 
C 40.40625 16.609375 33.296875 10 25 10 
z
" id="CMSY10-14"/>
      <path d="M 74.703125 69.09375 
C 74.703125 70 74 70 73.796875 70 
C 73.59375 70 73.203125 70 72.40625 68.984375 
L 65.5 60.640625 
C 62 66.59375 56.5 70 49 70 
C 27.40625 70 5 48.234375 5 24.90625 
C 5 8.328125 16.703125 -2 31.296875 -2 
C 39.296875 -2 46.296875 1.390625 52.09375 6.25 
C 60.796875 13.5 63.40625 23.125 63.40625 23.921875 
C 63.40625 24.8125 62.59375 24.8125 62.296875 24.8125 
C 61.40625 24.8125 61.296875 24.21875 61.09375 23.8125 
C 56.5 8.328125 43 0.890625 33 0.890625 
C 22.40625 0.890625 13.203125 7.640625 13.203125 21.734375 
C 13.203125 24.90625 14.203125 42.171875 25.5 55.171875 
C 31 61.53125 40.40625 67.09375 49.90625 67.09375 
C 60.90625 67.09375 65.796875 58.0625 65.796875 47.9375 
C 65.796875 45.359375 65.5 43.171875 65.5 42.765625 
C 65.5 41.875 66.5 41.875 66.796875 41.875 
C 67.90625 41.875 68 41.984375 68.40625 43.765625 
z
" id="CMMI12-67"/>
     </defs>
     <g transform="translate(625.798058 341.519858)scale(0.14 -0.14)">
      <use transform="scale(0.996264)" xlink:href="#CMMI12-84"/>
      <use transform="translate(98.397641 0)scale(0.996264)" xlink:href="#CMR17-61"/>
      <use transform="translate(197.786438 0)scale(0.996264)" xlink:href="#CMR17-49"/>
      <use transform="translate(243.476915 0)scale(0.996264)" xlink:href="#CMR17-48"/>
      <use transform="translate(289.167392 0)scale(0.996264)" xlink:href="#CMR17-53"/>
      <use transform="translate(334.857869 0)scale(0.996264)" xlink:href="#CMR17-48"/>
      <use transform="translate(380.548347 36.153639)scale(0.697382)" xlink:href="#CMSY10-14"/>
      <use transform="translate(415.915688 0)scale(0.996264)" xlink:href="#CMMI12-67"/>
     </g>
    </g>
    <g id="line2d_22"/>
    <g id="line2d_23">
     <g>
      <use style="fill:#00bb00;stroke:#00bb00;stroke-linejoin:miter;" x="600.598058" xlink:href="#m16844795ac" y="356.131886"/>
     </g>
    </g>
    <g id="text_13">
     <!-- $T=1100^{\circ} C$ -->
     <g transform="translate(625.798058 361.031886)scale(0.14 -0.14)">
      <use transform="scale(0.996264)" xlink:href="#CMMI12-84"/>
      <use transform="translate(98.397641 0)scale(0.996264)" xlink:href="#CMR17-61"/>
      <use transform="translate(197.786438 0)scale(0.996264)" xlink:href="#CMR17-49"/>
      <use transform="translate(243.476915 0)scale(0.996264)" xlink:href="#CMR17-49"/>
      <use transform="translate(289.167392 0)scale(0.996264)" xlink:href="#CMR17-48"/>
      <use transform="translate(334.857869 0)scale(0.996264)" xlink:href="#CMR17-48"/>
      <use transform="translate(380.548347 36.153639)scale(0.697382)" xlink:href="#CMSY10-14"/>
      <use transform="translate(415.915688 0)scale(0.996264)" xlink:href="#CMMI12-67"/>
     </g>
    </g>
    <g id="line2d_24"/>
    <g id="line2d_25">
     <g>
      <use style="fill:#0000bb;stroke:#0000bb;stroke-linejoin:miter;" x="600.598058" xlink:href="#mf573876c39" y="375.643915"/>
     </g>
    </g>
    <g id="text_14">
     <!-- $T=1150^{\circ} C$ -->
     <g transform="translate(625.798058 380.543915)scale(0.14 -0.14)">
      <use transform="scale(0.996264)" xlink:href="#CMMI12-84"/>
      <use transform="translate(98.397641 0)scale(0.996264)" xlink:href="#CMR17-61"/>
      <use transform="translate(197.786438 0)scale(0.996264)" xlink:href="#CMR17-49"/>
      <use transform="translate(243.476915 0)scale(0.996264)" xlink:href="#CMR17-49"/>
      <use transform="translate(289.167392 0)scale(0.996264)" xlink:href="#CMR17-53"/>
      <use transform="translate(334.857869 0)scale(0.996264)" xlink:href="#CMR17-48"/>
      <use transform="translate(380.548347 36.153639)scale(0.697382)" xlink:href="#CMSY10-14"/>
      <use transform="translate(415.915688 0)scale(0.996264)" xlink:href="#CMMI12-67"/>
     </g>
    </g>
    <g id="line2d_26"/>
    <g id="line2d_27">
     <g>
      <use style="fill:#bbbb00;stroke:#bbbb00;stroke-linejoin:miter;" x="600.598058" xlink:href="#m3c13321e40" y="395.155943"/>
     </g>
    </g>
    <g id="text_15">
     <!-- $T=1200^{\circ} C$ -->
     <g transform="translate(625.798058 400.055943)scale(0.14 -0.14)">
      <use transform="scale(0.996264)" xlink:href="#CMMI12-84"/>
      <use transform="translate(98.397641 0)scale(0.996264)" xlink:href="#CMR17-61"/>
      <use transform="translate(197.786438 0)scale(0.996264)" xlink:href="#CMR17-49"/>
      <use transform="translate(243.476915 0)scale(0.996264)" xlink:href="#CMR17-50"/>
      <use transform="translate(289.167392 0)scale(0.996264)" xlink:href="#CMR17-48"/>
      <use transform="translate(334.857869 0)scale(0.996264)" xlink:href="#CMR17-48"/>
      <use transform="translate(380.548347 36.153639)scale(0.697382)" xlink:href="#CMSY10-14"/>
      <use transform="translate(415.915688 0)scale(0.996264)" xlink:href="#CMMI12-67"/>
     </g>
    </g>
    <g id="line2d_28"/>
    <g id="line2d_29">
     <g>
      <use style="fill:#bb00bb;stroke:#bb00bb;stroke-linejoin:miter;" x="600.598058" xlink:href="#m5df71add79" y="414.667972"/>
     </g>
    </g>
    <g id="text_16">
     <!-- $T=1250^{\circ} C$ -->
     <g transform="translate(625.798058 419.567972)scale(0.14 -0.14)">
      <use transform="scale(0.996264)" xlink:href="#CMMI12-84"/>
      <use transform="translate(98.397641 0)scale(0.996264)" xlink:href="#CMR17-61"/>
      <use transform="translate(197.786438 0)scale(0.996264)" xlink:href="#CMR17-49"/>
      <use transform="translate(243.476915 0)scale(0.996264)" xlink:href="#CMR17-50"/>
      <use transform="translate(289.167392 0)scale(0.996264)" xlink:href="#CMR17-53"/>
      <use transform="translate(334.857869 0)scale(0.996264)" xlink:href="#CMR17-48"/>
      <use transform="translate(380.548347 36.153639)scale(0.697382)" xlink:href="#CMSY10-14"/>
      <use transform="translate(415.915688 0)scale(0.996264)" xlink:href="#CMMI12-67"/>
     </g>
    </g>
   </g>
  </g>
 </g>
 <defs>
  <clipPath id="p48acd53940">
   <rect height="434.88" width="669.6" x="39.670303" y="-0"/>
  </clipPath>
 </defs>
</svg>
